<?xml version="1.0" encoding="UTF-8" standalone="no"?>
<!-- Created with Inkscape (http://www.inkscape.org/) -->

<svg
   width="210mm"
   height="297mm"
   viewBox="0 0 210 297"
   version="1.1"
   id="svg1"
   xml:space="preserve"
   inkscape:version="1.4.2 (ebf0e940, 2025-05-08)"
   sodipodi:docname="cars.svg"
   xmlns:inkscape="http://www.inkscape.org/namespaces/inkscape"
   xmlns:sodipodi="http://sodipodi.sourceforge.net/DTD/sodipodi-0.dtd"
   xmlns="http://www.w3.org/2000/svg"
   xmlns:svg="http://www.w3.org/2000/svg"><sodipodi:namedview
     id="namedview1"
     pagecolor="#ffffff"
     bordercolor="#000000"
     borderopacity="0.25"
     inkscape:showpageshadow="2"
     inkscape:pageopacity="0.0"
     inkscape:pagecheckerboard="0"
     inkscape:deskcolor="#d1d1d1"
     inkscape:document-units="mm"
     inkscape:zoom="0.89887065"
     inkscape:cx="770.41118"
     inkscape:cy="443.89034"
     inkscape:window-width="2272"
     inkscape:window-height="1057"
     inkscape:window-x="2106"
     inkscape:window-y="99"
     inkscape:window-maximized="0"
     inkscape:current-layer="group-R5"><inkscape:page
       x="0"
       y="0"
       width="210"
       height="297"
       id="page1"
       margin="0"
       bleed="0" /><inkscape:page
       x="220"
       y="0"
       width="176.38889"
       height="176.3889"
       id="page2"
       margin="0"
       bleed="0" /></sodipodi:namedview><defs
     id="defs1" /><g
     inkscape:label="Ebene 1"
     inkscape:groupmode="layer"
     id="layer1" /><g
     id="g1"
     inkscape:groupmode="layer"
     inkscape:label="1"
     transform="matrix(0.26458333,0,0,0.26458334,220.00001,0)"><g
       id="group-R5"><path
         id="path3"
         d="m 1771.21,217.102 c 0,-4.391 0.68,-8.141 2.03,-11.231 1.37,-3.082 3.23,-5.402 5.62,-6.961 2.38,-1.57 4.97,-2.359 7.78,-2.359 2.83,0 5.43,0.738 7.81,2.238 2.35,1.473 4.22,3.762 5.63,6.832 1.41,3.051 2.11,6.899 2.11,11.481 0,4.32 -0.7,8.039 -2.11,11.128 -1.41,3.11 -3.3,5.481 -5.7,7.129 -2.4,1.641 -5,2.45 -7.87,2.45 -2.97,0 -5.61,-0.84 -7.95,-2.52 -2.34,-1.68 -4.15,-4.09 -5.43,-7.23 -1.29,-3.149 -1.92,-6.797 -1.92,-10.957 z m 31.87,-23.801 v 1.597 c -2.18,-2.476 -4.33,-4.527 -6.45,-6.066 -2.11,-1.582 -4.4,-2.773 -6.88,-3.57 -2.46,-0.84 -5.17,-1.223 -8.1,-1.223 -3.88,0 -7.48,0.813 -10.77,2.449 -3.32,1.641 -6.17,4.004 -8.59,7.051 -2.41,3.031 -4.24,6.613 -5.49,10.75 -1.25,4.102 -1.87,8.563 -1.87,13.352 0,10.121 2.48,18.019 7.42,23.691 4.95,5.637 11.47,8.477 19.53,8.477 4.67,0 8.61,-0.797 11.82,-2.411 3.19,-1.597 6.32,-4.066 9.38,-7.378 v 23.921 c 0,3.329 0.65,5.829 1.98,7.539 1.33,1.692 3.22,2.551 5.67,2.551 2.45,0 4.35,-0.789 5.68,-2.34 1.31,-1.582 1.99,-3.882 1.99,-6.921 v -71.469 c 0,-3.09 -0.71,-5.403 -2.14,-6.949 -1.44,-1.543 -3.27,-2.313 -5.53,-2.313 -2.21,0 -4.04,0.793 -5.5,2.402 -1.44,1.598 -2.15,3.891 -2.15,6.86"
         style="fill:#3b3e3f;fill-opacity:1;fill-rule:nonzero;stroke:none"
         transform="matrix(0.13333333,0,0,-0.13333333,0,666.66667)" /><path
         id="path4"
         d="m 1842.85,222.199 h 29.38 c -0.39,5.539 -1.9,9.692 -4.48,12.442 -2.59,2.75 -6,4.129 -10.25,4.129 -4.03,0 -7.35,-1.399 -9.94,-4.18 -2.59,-2.789 -4.16,-6.91 -4.71,-12.391 z M 1874.53,213 h -31.68 c 0.03,-3.68 0.76,-6.93 2.22,-9.73 1.44,-2.809 3.37,-4.938 5.76,-6.348 2.39,-1.43 5.03,-2.141 7.92,-2.141 1.95,0 3.71,0.219 5.31,0.68 1.61,0.461 3.17,1.168 4.67,2.141 1.5,0.968 2.89,2.007 4.14,3.109 1.27,1.121 2.91,2.621 4.94,4.519 0.82,0.719 2.01,1.071 3.56,1.071 1.66,0 3.01,-0.461 4.03,-1.379 1.03,-0.91 1.55,-2.192 1.55,-3.863 0,-1.45 -0.57,-3.161 -1.72,-5.118 -1.17,-1.972 -2.89,-3.839 -5.2,-5.64 -2.32,-1.809 -5.21,-3.289 -8.72,-4.469 -3.5,-1.203 -7.52,-1.793 -12.08,-1.793 -10.42,0 -18.51,2.973 -24.29,8.902 -5.76,5.938 -8.65,13.981 -8.65,24.161 0,4.789 0.7,9.238 2.13,13.328 1.42,4.09 3.49,7.609 6.23,10.531 2.73,2.941 6.09,5.18 10.1,6.738 3.99,1.571 8.42,2.352 13.3,2.352 6.33,0 11.75,-1.34 16.28,-4.012 4.54,-2.668 7.94,-6.129 10.18,-10.359 2.26,-4.219 3.39,-8.551 3.39,-12.93 0,-4.102 -1.16,-6.719 -3.5,-7.941 -2.33,-1.207 -5.63,-1.809 -9.87,-1.809"
         style="fill:#3b3e3f;fill-opacity:1;fill-rule:nonzero;stroke:none"
         transform="matrix(0.13333333,0,0,-0.13333333,0,666.66667)" /><path
         id="path5"
         d="m 1948.38,205.23 c 0,-4.468 -1.08,-8.3 -3.26,-11.48 -2.17,-3.191 -5.39,-5.621 -9.65,-7.262 -4.26,-1.636 -9.43,-2.449 -15.53,-2.449 -5.8,0 -10.8,0.891 -14.94,2.68 -4.16,1.761 -7.23,3.992 -9.22,6.66 -1.97,2.68 -2.96,5.359 -2.96,8.062 0,1.778 0.62,3.301 1.91,4.559 1.26,1.27 2.87,1.898 4.8,1.898 1.7,0 2.99,-0.418 3.91,-1.257 0.92,-0.821 1.78,-2 2.61,-3.493 1.66,-2.898 3.66,-5.027 5.98,-6.476 2.32,-1.41 5.47,-2.133 9.47,-2.133 3.25,0 5.9,0.731 7.97,2.172 2.09,1.449 3.13,3.098 3.13,4.949 0,2.86 -1.08,4.922 -3.24,6.238 -2.16,1.293 -5.71,2.563 -10.66,3.743 -5.57,1.379 -10.12,2.839 -13.62,4.379 -3.51,1.511 -6.3,3.511 -8.4,6.011 -2.1,2.489 -3.14,5.571 -3.14,9.199 0,3.239 0.95,6.309 2.9,9.211 1.94,2.879 4.81,5.18 8.59,6.911 3.78,1.707 8.33,2.578 13.67,2.578 4.2,0 7.98,-0.438 11.3,-1.321 3.35,-0.859 6.14,-2.027 8.38,-3.488 2.24,-1.461 3.94,-3.09 5.1,-4.883 1.18,-1.758 1.74,-3.496 1.74,-5.207 0,-1.859 -0.61,-3.383 -1.84,-4.582 -1.25,-1.168 -3.03,-1.789 -5.33,-1.789 -1.66,0 -3.07,0.481 -4.24,1.449 -1.17,0.93 -2.5,2.371 -4.01,4.262 -1.23,1.59 -2.67,2.859 -4.32,3.809 -1.67,0.949 -3.92,1.41 -6.78,1.41 -2.93,0 -5.36,-0.61 -7.29,-1.86 -1.95,-1.261 -2.91,-2.8 -2.91,-4.648 0,-1.711 0.7,-3.113 2.13,-4.18 1.42,-1.121 3.33,-2.023 5.77,-2.722 2.4,-0.711 5.72,-1.578 9.97,-2.61 5.02,-1.23 9.12,-2.691 12.3,-4.39 3.19,-1.692 5.61,-3.711 7.26,-6.032 1.63,-2.316 2.45,-4.949 2.45,-7.918"
         style="fill:#3b3e3f;fill-opacity:1;fill-rule:nonzero;stroke:none"
         transform="matrix(0.13333333,0,0,-0.13333333,0,666.66667)" /><path
         id="path6"
         d="m 1972.95,240.73 v -46.839 c 0,-3.25 -0.76,-5.7 -2.31,-7.371 -1.55,-1.661 -3.5,-2.481 -5.87,-2.481 -2.39,0 -4.32,0.832 -5.81,2.551 -1.48,1.699 -2.2,4.129 -2.2,7.301 v 46.347 c 0,3.223 0.72,5.633 2.2,7.262 1.49,1.609 3.42,2.43 5.81,2.43 2.37,0 4.32,-0.821 5.87,-2.43 1.55,-1.629 2.31,-3.891 2.31,-6.77 z m -8.01,16.731 c -2.25,0 -4.19,0.699 -5.78,2.078 -1.62,1.383 -2.4,3.34 -2.4,5.883 0,2.289 0.81,4.18 2.44,5.66 1.65,1.5 3.57,2.238 5.74,2.238 2.1,0 3.96,-0.668 5.58,-2.031 1.63,-1.34 2.43,-3.289 2.43,-5.867 0,-2.492 -0.8,-4.43 -2.38,-5.84 -1.58,-1.41 -3.46,-2.121 -5.63,-2.121"
         style="fill:#3b3e3f;fill-opacity:1;fill-rule:nonzero;stroke:none"
         transform="matrix(0.13333333,0,0,-0.13333333,0,666.66667)" /><path
         id="path7"
         d="m 1996.99,217.512 c 0,-6.563 1.43,-11.532 4.31,-14.883 2.86,-3.379 6.57,-5.059 11.12,-5.059 2.7,0 5.24,0.731 7.62,2.172 2.4,1.438 4.35,3.629 5.87,6.528 1.48,2.902 2.23,6.441 2.23,10.601 0,6.609 -1.44,11.75 -4.35,15.418 -2.91,3.68 -6.74,5.52 -11.49,5.52 -4.63,0 -8.34,-1.77 -11.13,-5.278 -2.79,-3.519 -4.18,-8.531 -4.18,-15.019 z m 46.96,20.547 v -47.067 c 0,-5.39 -0.58,-10.031 -1.74,-13.902 -1.14,-3.879 -2.97,-7.09 -5.51,-9.621 -2.53,-2.52 -5.86,-4.41 -9.94,-5.629 -4.09,-1.231 -9.2,-1.84 -15.29,-1.84 -5.57,0 -10.57,0.77 -14.97,2.332 -4.37,1.59 -7.75,3.598 -10.13,6.066 -2.39,2.473 -3.57,5.012 -3.57,7.622 0,1.98 0.68,3.601 2.01,4.839 1.34,1.25 2.98,1.871 4.88,1.871 2.36,0 4.45,-1.05 6.23,-3.148 0.88,-1.051 1.76,-2.141 2.7,-3.223 0.93,-1.121 1.97,-2.027 3.09,-2.808 1.12,-0.77 2.48,-1.34 4.06,-1.719 1.57,-0.371 3.41,-0.551 5.46,-0.551 4.2,0 7.46,0.59 9.77,1.75 2.32,1.16 3.94,2.789 4.87,4.891 0.93,2.09 1.47,4.34 1.63,6.738 0.16,2.399 0.27,6.25 0.36,11.551 -2.51,-3.492 -5.38,-6.141 -8.64,-7.961 -3.26,-1.809 -7.16,-2.73 -11.66,-2.73 -5.42,0 -10.16,1.378 -14.22,4.16 -4.06,2.769 -7.19,6.652 -9.36,11.64 -2.16,4.981 -3.26,10.739 -3.26,17.262 0,4.859 0.67,9.27 1.99,13.18 1.33,3.918 3.22,7.218 5.67,9.918 2.45,2.691 5.29,4.711 8.48,6.07 3.22,1.379 6.73,2.059 10.57,2.059 4.59,0 8.58,-0.887 11.95,-2.629 3.35,-1.77 6.48,-4.528 9.37,-8.289 v 2.191 c 0,2.82 0.68,4.977 2.07,6.539 1.4,1.527 3.17,2.309 5.35,2.309 3.13,0 5.2,-1.02 6.22,-3.059 1.05,-2.039 1.56,-4.992 1.56,-8.812"
         style="fill:#3b3e3f;fill-opacity:1;fill-rule:nonzero;stroke:none"
         transform="matrix(0.13333333,0,0,-0.13333333,0,666.66667)" /><path
         id="path8"
         d="M 2069.71,240.961 V 239 c 2.84,3.762 5.95,6.539 9.34,8.289 3.39,1.75 7.27,2.641 11.65,2.641 4.28,0 8.11,-0.942 11.47,-2.789 3.36,-1.871 5.89,-4.489 7.54,-7.879 1.07,-2 1.76,-4.133 2.07,-6.43 0.31,-2.293 0.49,-5.223 0.49,-8.801 v -30.14 c 0,-3.25 -0.75,-5.7 -2.23,-7.371 -1.49,-1.661 -3.42,-2.481 -5.78,-2.481 -2.42,0 -4.38,0.832 -5.88,2.551 -1.52,1.699 -2.27,4.129 -2.27,7.301 v 27.019 c 0,5.328 -0.74,9.41 -2.22,12.238 -1.49,2.844 -4.44,4.262 -8.88,4.262 -2.88,0 -5.52,-0.871 -7.88,-2.601 -2.38,-1.7 -4.13,-4.079 -5.24,-7.09 -0.78,-2.41 -1.19,-6.91 -1.19,-13.528 v -20.3 c 0,-3.27 -0.76,-5.762 -2.28,-7.403 -1.51,-1.636 -3.49,-2.449 -5.89,-2.449 -2.35,0 -4.27,0.832 -5.77,2.551 -1.5,1.699 -2.25,4.129 -2.25,7.301 v 46.839 c 0,3.09 0.67,5.399 2.01,6.93 1.34,1.512 3.19,2.27 5.51,2.27 1.44,0 2.73,-0.328 3.88,-1.008 1.13,-0.68 2.06,-1.68 2.75,-3.031 0.71,-1.34 1.05,-2.993 1.05,-4.93"
         style="fill:#3b3e3f;fill-opacity:1;fill-rule:nonzero;stroke:none"
         transform="matrix(0.13333333,0,0,-0.13333333,0,666.66667)" /><path
         id="path9"
         d="m 2136.6,222.199 h 29.38 c -0.39,5.539 -1.9,9.692 -4.48,12.442 -2.59,2.75 -6,4.129 -10.25,4.129 -4.03,0 -7.35,-1.399 -9.94,-4.18 -2.59,-2.789 -4.16,-6.91 -4.71,-12.391 z M 2168.28,213 h -31.68 c 0.03,-3.68 0.78,-6.93 2.22,-9.73 1.45,-2.809 3.37,-4.938 5.76,-6.348 2.39,-1.43 5.03,-2.141 7.92,-2.141 1.95,0 3.71,0.219 5.33,0.68 1.58,0.461 3.15,1.168 4.65,2.141 1.5,0.968 2.87,2.007 4.16,3.109 1.25,1.121 2.91,2.621 4.92,4.519 0.82,0.719 2.01,1.071 3.56,1.071 1.66,0 3.01,-0.461 4.04,-1.379 1.04,-0.91 1.54,-2.192 1.54,-3.863 0,-1.45 -0.57,-3.161 -1.72,-5.118 -1.15,-1.972 -2.89,-3.839 -5.2,-5.64 -2.32,-1.809 -5.21,-3.289 -8.72,-4.469 -3.5,-1.203 -7.52,-1.793 -12.08,-1.793 -10.42,0 -18.51,2.973 -24.28,8.902 -5.78,5.938 -8.66,13.981 -8.66,24.161 0,4.789 0.7,9.238 2.13,13.328 1.42,4.09 3.49,7.609 6.24,10.531 2.72,2.941 6.08,5.18 10.09,6.738 3.99,1.571 8.42,2.352 13.3,2.352 6.33,0 11.75,-1.34 16.28,-4.012 4.54,-2.668 7.94,-6.129 10.19,-10.359 2.25,-4.219 3.38,-8.551 3.38,-12.93 0,-4.102 -1.16,-6.719 -3.51,-7.941 -2.32,-1.207 -5.6,-1.809 -9.86,-1.809"
         style="fill:#3b3e3f;fill-opacity:1;fill-rule:nonzero;stroke:none"
         transform="matrix(0.13333333,0,0,-0.13333333,0,666.66667)" /><path
         id="path10"
         d="m 2202.48,217.102 c 0,-4.391 0.68,-8.141 2.05,-11.231 1.35,-3.082 3.23,-5.402 5.62,-6.961 2.36,-1.57 4.95,-2.359 7.76,-2.359 2.85,0 5.45,0.738 7.81,2.238 2.36,1.473 4.24,3.762 5.65,6.832 1.39,3.051 2.09,6.899 2.09,11.481 0,4.32 -0.7,8.039 -2.09,11.128 -1.41,3.11 -3.31,5.481 -5.71,7.129 -2.4,1.641 -5.02,2.45 -7.87,2.45 -2.97,0 -5.62,-0.84 -7.95,-2.52 -2.33,-1.68 -4.15,-4.09 -5.44,-7.23 -1.29,-3.149 -1.92,-6.797 -1.92,-10.957 z m 31.88,-23.801 v 1.597 c -2.17,-2.476 -4.33,-4.527 -6.44,-6.066 -2.12,-1.582 -4.42,-2.773 -6.88,-3.57 -2.49,-0.84 -5.18,-1.223 -8.11,-1.223 -3.89,0 -7.48,0.813 -10.78,2.449 -3.3,1.641 -6.17,4.004 -8.58,7.051 -2.41,3.031 -4.23,6.613 -5.48,10.75 -1.25,4.102 -1.87,8.563 -1.87,13.352 0,10.121 2.47,18.019 7.41,23.691 4.95,5.637 11.47,8.477 19.53,8.477 4.67,0 8.62,-0.797 11.82,-2.411 3.2,-1.597 6.33,-4.066 9.38,-7.378 v 23.921 c 0,3.329 0.66,5.829 1.98,7.539 1.34,1.692 3.23,2.551 5.67,2.551 2.46,0 4.34,-0.789 5.67,-2.34 1.33,-1.582 1.99,-3.882 1.99,-6.921 v -71.469 c 0,-3.09 -0.71,-5.403 -2.13,-6.949 -1.44,-1.543 -3.26,-2.313 -5.53,-2.313 -2.22,0 -4.04,0.793 -5.49,2.402 -1.45,1.598 -2.16,3.891 -2.16,6.86"
         style="fill:#3b3e3f;fill-opacity:1;fill-rule:nonzero;stroke:none"
         transform="matrix(0.13333333,0,0,-0.13333333,0,666.66667)" /><path
         id="path11"
         d="m 2301.37,216.621 c 0,-6.441 1.46,-11.402 4.42,-14.851 2.94,-3.469 6.81,-5.219 11.6,-5.219 4.07,0 7.59,1.769 10.54,5.32 2.95,3.539 4.42,8.621 4.42,15.231 0,4.277 -0.61,7.949 -1.84,11.039 -1.22,3.089 -2.97,5.468 -5.22,7.148 -2.25,1.68 -4.9,2.52 -7.9,2.52 -3.08,0 -5.85,-0.84 -8.25,-2.52 -2.42,-1.68 -4.32,-4.109 -5.7,-7.289 -1.39,-3.191 -2.07,-6.98 -2.07,-11.379 z m -0.78,48.149 v -24.75 c 3.04,3.16 6.15,5.601 9.33,7.269 3.16,1.68 7.07,2.52 11.74,2.52 5.39,0 10.1,-1.27 14.17,-3.809 4.05,-2.57 7.19,-6.27 9.43,-11.121 2.24,-4.848 3.35,-10.59 3.35,-17.238 0,-4.922 -0.61,-9.411 -1.85,-13.512 -1.26,-4.098 -3.07,-7.649 -5.44,-10.649 -2.37,-3 -5.27,-5.351 -8.64,-6.992 -3.38,-1.636 -7.11,-2.449 -11.2,-2.449 -2.49,0 -4.83,0.301 -7.03,0.891 -2.19,0.59 -4.06,1.371 -5.61,2.351 -1.54,0.961 -2.86,1.961 -3.94,2.981 -1.09,1.027 -2.54,2.578 -4.31,4.636 v -1.597 c 0,-3.051 -0.73,-5.352 -2.2,-6.93 -1.46,-1.562 -3.32,-2.332 -5.58,-2.332 -2.29,0 -4.12,0.77 -5.48,2.332 -1.37,1.578 -2.06,3.879 -2.06,6.93 v 70.75 c 0,3.289 0.67,5.781 1.99,7.449 1.32,1.691 3.18,2.531 5.55,2.531 2.5,0 4.42,-0.812 5.76,-2.41 1.34,-1.601 2.02,-3.883 2.02,-6.851"
         style="fill:#3b3e3f;fill-opacity:1;fill-rule:nonzero;stroke:none"
         transform="matrix(0.13333333,0,0,-0.13333333,0,666.66667)" /><path
         id="path12"
         d="m 2369.63,182.012 1.47,3.629 -19.95,50.218 c -1.21,2.879 -1.83,4.993 -1.83,6.301 0,1.379 0.37,2.66 1.07,3.852 0.72,1.187 1.7,2.136 2.94,2.847 1.25,0.723 2.54,1.071 3.89,1.071 2.33,0 4.1,-0.739 5.28,-2.231 1.19,-1.48 2.23,-3.597 3.14,-6.367 l 13.72,-39.891 13,37.098 c 1.02,2.992 1.97,5.363 2.8,7.063 0.83,1.687 1.7,2.847 2.63,3.429 0.92,0.598 2.25,0.899 3.95,0.899 1.24,0 2.42,-0.321 3.53,-0.989 1.13,-0.64 2.01,-1.531 2.62,-2.632 0.61,-1.11 0.92,-2.27 0.92,-3.508 -0.17,-0.742 -0.41,-1.809 -0.78,-3.211 -0.35,-1.379 -0.78,-2.789 -1.3,-4.211 l -21.13,-55.32 c -1.82,-4.86 -3.61,-8.68 -5.35,-11.45 -1.74,-2.757 -4.04,-4.91 -6.91,-6.367 -2.87,-1.5 -6.74,-2.242 -11.61,-2.242 -4.75,0 -8.31,0.512 -10.68,1.531 -2.38,1.039 -3.57,2.91 -3.57,5.649 0,1.859 0.57,3.289 1.7,4.289 1.13,1.019 2.79,1.531 5.01,1.531 l 2.57,-0.359 c 1.01,-0.243 1.91,-0.36 2.65,-0.36 1.86,0 3.33,0.27 4.4,0.84 1.07,0.539 2.03,1.508 2.87,2.879 0.86,1.34 1.84,3.371 2.95,6.012"
         style="fill:#3b3e3f;fill-opacity:1;fill-rule:nonzero;stroke:none"
         transform="matrix(0.13333333,0,0,-0.13333333,0,666.66667)" /><path
         id="path13"
         d="m 2604.39,248.539 h 3.87 v 4.852 c 0,5.089 0.63,9.109 1.92,12.109 1.28,3 3.46,5.16 6.55,6.52 3.06,1.359 7.25,2.05 12.6,2.05 9.49,0 14.2,-2.289 14.2,-6.968 0,-1.481 -0.5,-2.77 -1.51,-3.832 -0.96,-1.059 -2.14,-1.61 -3.48,-1.61 -0.63,0 -1.73,0.121 -3.3,0.379 -1.48,0.203 -2.82,0.34 -3.89,0.34 -2.92,0 -4.79,-0.879 -5.65,-2.59 -0.8,-1.73 -1.23,-4.168 -1.23,-7.41 v -3.84 h 3.96 c 6.19,0 9.25,-1.867 9.25,-5.617 0,-2.613 -0.8,-4.313 -2.46,-5.024 -1.63,-0.707 -3.88,-1.058 -6.79,-1.058 h -3.96 v -42.949 c 0,-3.2 -0.76,-5.629 -2.3,-7.301 -1.52,-1.719 -3.47,-2.539 -5.9,-2.539 -2.3,0 -4.18,0.82 -5.73,2.539 -1.54,1.672 -2.28,4.101 -2.28,7.301 v 42.949 h -4.46 c -2.42,0 -4.27,0.512 -5.59,1.64 -1.3,1.059 -1.96,2.481 -1.96,4.231 0,3.891 2.71,5.828 8.14,5.828"
         style="fill:#3b3e3f;fill-opacity:1;fill-rule:nonzero;stroke:none"
         transform="matrix(0.13333333,0,0,-0.13333333,0,666.66667)" /><path
         id="path14"
         d="m 2657.45,207.441 v -13.55 c 0,-3.27 -0.82,-5.762 -2.33,-7.379 -1.55,-1.66 -3.5,-2.461 -5.86,-2.461 -2.38,0 -4.3,0.808 -5.79,2.508 -1.48,1.64 -2.26,4.089 -2.26,7.332 v 45.14 c 0,7.289 2.63,10.93 7.89,10.93 2.72,0 4.63,-0.852 5.83,-2.563 1.18,-1.699 1.85,-4.207 1.98,-7.539 1.92,3.332 3.91,5.84 5.93,7.539 2.08,1.711 4.77,2.563 8.19,2.563 3.42,0 6.68,-0.852 9.91,-2.563 3.21,-1.699 4.81,-3.968 4.81,-6.769 0,-1.957 -0.69,-3.617 -2.04,-4.887 -1.38,-1.301 -2.84,-1.953 -4.41,-1.953 -0.62,0 -2.06,0.402 -4.32,1.133 -2.28,0.707 -4.32,1.09 -6.02,1.09 -2.38,0 -4.33,-0.653 -5.83,-1.871 -1.51,-1.289 -2.69,-3.102 -3.52,-5.539 -0.81,-2.481 -1.38,-5.411 -1.71,-8.793 -0.31,-3.368 -0.45,-7.52 -0.45,-12.368"
         style="fill:#3b3e3f;fill-opacity:1;fill-rule:nonzero;stroke:none"
         transform="matrix(0.13333333,0,0,-0.13333333,0,666.66667)" /><path
         id="path15"
         d="m 2700.24,222.242 h 29.39 c -0.39,5.52 -1.86,9.668 -4.46,12.406 -2.61,2.762 -5.99,4.133 -10.26,4.133 -4.03,0 -7.35,-1.39 -9.94,-4.191 -2.59,-2.781 -4.18,-6.891 -4.73,-12.348 m 31.72,-9.222 h -31.72 c 0.07,-3.668 0.8,-6.95 2.22,-9.739 1.48,-2.801 3.38,-4.922 5.78,-6.359 2.4,-1.422 5.03,-2.133 7.94,-2.133 1.93,0 3.69,0.211 5.3,0.703 1.59,0.438 3.16,1.156 4.65,2.137 1.52,0.953 2.88,1.992 4.16,3.121 1.26,1.09 2.91,2.602 4.94,4.488 0.84,0.723 2.03,1.094 3.55,1.094 1.67,0 3.01,-0.473 4.05,-1.391 1.04,-0.921 1.53,-2.179 1.53,-3.871 0,-1.449 -0.56,-3.172 -1.67,-5.101 -1.18,-2 -2.9,-3.86 -5.23,-5.668 -2.33,-1.77 -5.25,-3.289 -8.74,-4.461 -3.49,-1.192 -7.53,-1.789 -12.07,-1.789 -10.44,0 -18.52,2.961 -24.29,8.89 -5.78,5.95 -8.69,14.02 -8.69,24.168 0,4.789 0.73,9.25 2.17,13.34 1.41,4.121 3.49,7.61 6.24,10.551 2.71,2.941 6.06,5.172 10.08,6.73 3.98,1.579 8.41,2.352 13.3,2.352 6.32,0 11.75,-1.344 16.29,-4.043 4.51,-2.641 7.96,-6.109 10.18,-10.34 2.26,-4.238 3.38,-8.539 3.38,-12.961 0,-4.058 -1.17,-6.699 -3.5,-7.918 -2.33,-1.199 -5.62,-1.8 -9.85,-1.8"
         style="fill:#3b3e3f;fill-opacity:1;fill-rule:nonzero;stroke:none"
         transform="matrix(0.13333333,0,0,-0.13333333,0,666.66667)" /><path
         id="path16"
         d="m 2767.68,222.242 h 29.37 c -0.39,5.52 -1.89,9.668 -4.45,12.406 -2.65,2.762 -6.03,4.133 -10.28,4.133 -4.04,0 -7.35,-1.39 -9.96,-4.191 -2.57,-2.781 -4.16,-6.891 -4.68,-12.348 m 31.7,-9.222 h -31.7 c 0.03,-3.668 0.78,-6.95 2.2,-9.739 1.46,-2.801 3.37,-4.922 5.76,-6.359 2.41,-1.422 5.03,-2.133 7.95,-2.133 1.93,0 3.7,0.211 5.28,0.703 1.63,0.438 3.16,1.156 4.68,2.137 1.52,0.953 2.89,1.992 4.16,3.121 1.24,1.09 2.9,2.602 4.93,4.488 0.84,0.723 2.03,1.094 3.54,1.094 1.69,0 3.02,-0.473 4.07,-1.391 1.03,-0.921 1.5,-2.179 1.5,-3.871 0,-1.449 -0.54,-3.172 -1.7,-5.101 -1.11,-2 -2.85,-3.86 -5.19,-5.668 -2.32,-1.77 -5.26,-3.289 -8.74,-4.461 -3.47,-1.192 -7.54,-1.789 -12.08,-1.789 -10.43,0 -18.48,2.961 -24.28,8.89 -5.79,5.95 -8.69,14.02 -8.69,24.168 0,4.789 0.73,9.25 2.18,13.34 1.42,4.121 3.49,7.61 6.22,10.551 2.73,2.941 6.09,5.172 10.08,6.73 3.99,1.579 8.46,2.352 13.31,2.352 6.31,0 11.74,-1.344 16.34,-4.043 4.5,-2.641 7.9,-6.109 10.13,-10.34 2.24,-4.238 3.4,-8.539 3.4,-12.961 0,-4.058 -1.2,-6.699 -3.5,-7.918 -2.35,-1.199 -5.63,-1.8 -9.85,-1.8"
         style="fill:#3b3e3f;fill-opacity:1;fill-rule:nonzero;stroke:none"
         transform="matrix(0.13333333,0,0,-0.13333333,0,666.66667)" /><path
         id="path17"
         d="m 2866.65,217.289 c 0,4.281 -0.65,7.949 -1.96,11.031 -1.32,3.071 -3.12,5.418 -5.41,7.039 -2.3,1.653 -4.9,2.473 -7.7,2.473 -4.47,0 -8.24,-1.773 -11.32,-5.273 -3.06,-3.539 -4.62,-8.707 -4.62,-15.579 0,-6.41 1.53,-11.449 4.6,-15.039 3.05,-3.582 6.8,-5.371 11.34,-5.371 2.67,0 5.18,0.801 7.48,2.34 2.32,1.57 4.14,3.91 5.51,7.051 1.39,3.129 2.08,6.91 2.08,11.328 m -31.77,23.543 v -1.93 c 3.04,3.758 6.21,6.52 9.52,8.278 3.25,1.781 7,2.66 11.14,2.66 4.97,0 9.6,-1.301 13.8,-3.84 4.2,-2.602 7.49,-6.359 9.93,-11.301 2.44,-4.969 3.67,-10.82 3.67,-17.59 0,-4.968 -0.71,-9.578 -2.1,-13.757 -1.42,-4.172 -3.37,-7.672 -5.82,-10.493 -2.44,-2.808 -5.35,-5.019 -8.67,-6.539 -3.39,-1.511 -6.95,-2.269 -10.81,-2.269 -4.62,0 -8.53,0.929 -11.65,2.808 -3.14,1.813 -6.15,4.571 -9.01,8.141 v -24.328 c 0,-7.09 -2.6,-10.672 -7.78,-10.672 -3.07,0 -5.06,0.91 -6.07,2.738 -0.95,1.864 -1.47,4.524 -1.47,8.071 v 69.961 c 0,3.082 0.68,5.371 2.01,6.921 1.34,1.489 3.2,2.27 5.53,2.27 2.3,0 4.16,-0.781 5.61,-2.332 1.46,-1.59 2.17,-3.82 2.17,-6.797"
         style="fill:#3b3e3f;fill-opacity:1;fill-rule:nonzero;stroke:none"
         transform="matrix(0.13333333,0,0,-0.13333333,0,666.66667)" /><path
         id="path18"
         d="m 2907.28,240.77 v -46.891 c 0,-3.231 -0.78,-5.68 -2.31,-7.32 -1.56,-1.7 -3.51,-2.508 -5.89,-2.508 -2.37,0 -4.28,0.82 -5.79,2.539 -1.47,1.719 -2.23,4.16 -2.23,7.289 v 46.422 c 0,3.191 0.76,5.59 2.23,7.219 1.51,1.652 3.42,2.441 5.79,2.441 2.38,0 4.33,-0.789 5.89,-2.441 1.53,-1.629 2.31,-3.899 2.31,-6.75 m -8.02,16.73 c -2.28,0 -4.19,0.719 -5.78,2.102 -1.62,1.398 -2.42,3.328 -2.42,5.847 0,2.313 0.82,4.18 2.48,5.68 1.64,1.48 3.54,2.23 5.72,2.23 2.13,0 3.96,-0.648 5.57,-1.98 1.63,-1.367 2.45,-3.348 2.45,-5.93 0,-2.488 -0.8,-4.437 -2.37,-5.847 -1.57,-1.383 -3.45,-2.102 -5.65,-2.102"
         style="fill:#3b3e3f;fill-opacity:1;fill-rule:nonzero;stroke:none"
         transform="matrix(0.13333333,0,0,-0.13333333,0,666.66667)" /><path
         id="path19"
         d="m 2959.52,191.449 -14.27,23.531 -8.8,-8.289 V 193.77 c 0,-3.122 -0.82,-5.508 -2.48,-7.18 -1.61,-1.719 -3.54,-2.539 -5.66,-2.539 -2.49,0 -4.47,0.808 -5.89,2.508 -1.41,1.64 -2.14,4.089 -2.14,7.332 v 69.14 c 0,3.59 0.72,6.321 2.06,8.219 1.41,1.898 3.41,2.82 5.97,2.82 2.49,0 4.45,-0.859 5.94,-2.57 1.45,-1.699 2.2,-4.211 2.2,-7.512 V 224.66 l 18.23,19.129 c 2.25,2.359 3.95,4.012 5.15,4.871 1.2,0.871 2.64,1.301 4.32,1.301 2.04,0 3.71,-0.641 5.1,-1.93 1.33,-1.281 2,-2.902 2,-4.84 0,-2.371 -2.21,-5.55 -6.59,-9.5 l -8.61,-7.89 16.63,-26.141 c 1.2,-1.949 2.11,-3.398 2.63,-4.422 0.53,-0.988 0.82,-1.996 0.82,-2.886 0,-2.571 -0.72,-4.59 -2.13,-6.082 -1.41,-1.481 -3.27,-2.219 -5.52,-2.219 -1.99,0 -3.54,0.5 -4.6,1.597 -1.07,1.082 -2.54,3.024 -4.36,5.801"
         style="fill:#3b3e3f;fill-opacity:1;fill-rule:nonzero;stroke:none"
         transform="matrix(0.13333333,0,0,-0.13333333,0,666.66667)" /><path
         id="path20"
         d="m 2994.76,184.051 c -2.46,0 -4.55,0.781 -6.34,2.39 -1.78,1.539 -2.69,3.77 -2.69,6.649 0,2.402 0.87,4.492 2.56,6.219 1.72,1.73 3.8,2.613 6.3,2.613 2.49,0 4.6,-0.883 6.4,-2.57 1.74,-1.723 2.63,-3.84 2.63,-6.262 0,-2.84 -0.89,-5.059 -2.63,-6.629 -1.8,-1.629 -3.87,-2.41 -6.23,-2.41"
         style="fill:#3b3e3f;fill-opacity:1;fill-rule:nonzero;stroke:none"
         transform="matrix(0.13333333,0,0,-0.13333333,0,666.66667)" /><path
         id="path21"
         d="m 3075.36,204.109 c 0,-2.007 -0.6,-4.179 -1.82,-6.449 -1.19,-2.328 -3.04,-4.5 -5.53,-6.578 -2.46,-2.07 -5.57,-3.762 -9.34,-5.023 -3.76,-1.27 -8.02,-1.911 -12.7,-1.911 -10.03,0 -17.85,2.934 -23.48,8.75 -5.61,5.852 -8.41,13.684 -8.41,23.504 0,6.68 1.27,12.539 3.86,17.649 2.55,5.09 6.28,9.051 11.14,11.84 4.87,2.8 10.72,4.191 17.46,4.191 4.21,0 8.05,-0.613 11.58,-1.84 3.49,-1.23 6.45,-2.82 8.91,-4.75 2.42,-1.972 4.28,-4.023 5.56,-6.203 1.29,-2.199 1.92,-4.25 1.92,-6.168 0,-1.922 -0.7,-3.57 -2.15,-4.922 -1.46,-1.34 -3.22,-2.027 -5.23,-2.027 -1.37,0 -2.49,0.359 -3.38,1.039 -0.91,0.699 -1.9,1.809 -2.99,3.391 -2,2.988 -4.04,5.257 -6.24,6.75 -2.14,1.519 -4.87,2.257 -8.21,2.257 -4.76,0 -8.63,-1.867 -11.58,-5.617 -2.91,-3.711 -4.4,-8.871 -4.4,-15.344 0,-3.046 0.4,-5.867 1.15,-8.418 0.74,-2.539 1.82,-4.71 3.25,-6.511 1.44,-1.797 3.14,-3.16 5.16,-4.09 2.02,-0.969 4.26,-1.418 6.65,-1.418 3.26,0 6.05,0.75 8.36,2.258 2.35,1.5 4.39,3.801 6.16,6.883 0.98,1.828 2.05,3.23 3.19,4.269 1.14,1.027 2.55,1.57 4.22,1.57 1.97,0 3.62,-0.769 4.91,-2.261 1.32,-1.508 1.98,-3.121 1.98,-4.821"
         style="fill:#3b3e3f;fill-opacity:1;fill-rule:nonzero;stroke:none"
         transform="matrix(0.13333333,0,0,-0.13333333,0,666.66667)" /><path
         id="path22"
         d="m 3129.03,216.98 c 0,6.61 -1.46,11.758 -4.35,15.43 -2.9,3.731 -6.83,5.559 -11.72,5.559 -3.18,0 -5.98,-0.828 -8.39,-2.457 -2.41,-1.641 -4.27,-4.051 -5.57,-7.293 -1.3,-3.199 -1.97,-6.949 -1.97,-11.239 0,-4.242 0.65,-7.91 1.93,-11.082 1.3,-3.187 3.14,-5.597 5.54,-7.289 2.4,-1.66 5.22,-2.527 8.46,-2.527 4.89,0 8.82,1.867 11.72,5.578 2.89,3.692 4.35,8.82 4.35,15.32 m 16.27,0 c 0,-4.8 -0.76,-9.269 -2.22,-13.371 -1.54,-4.07 -3.7,-7.57 -6.56,-10.488 -2.84,-2.91 -6.26,-5.16 -10.2,-6.73 -4,-1.559 -8.44,-2.352 -13.36,-2.352 -4.91,0 -9.34,0.793 -13.26,2.402 -3.9,1.539 -7.31,3.821 -10.16,6.75 -2.89,2.989 -5.06,6.469 -6.58,10.481 -1.43,4.039 -2.19,8.469 -2.19,13.308 0,4.918 0.77,9.422 2.24,13.489 1.51,4.101 3.69,7.59 6.49,10.472 2.82,2.879 6.22,5.098 10.2,6.688 4.02,1.551 8.43,2.332 13.26,2.332 4.89,0 9.35,-0.781 13.36,-2.379 3.98,-1.57 7.4,-3.844 10.27,-6.762 2.86,-2.961 5.03,-6.441 6.5,-10.441 1.46,-4.07 2.21,-8.5 2.21,-13.399"
         style="fill:#3b3e3f;fill-opacity:1;fill-rule:nonzero;stroke:none"
         transform="matrix(0.13333333,0,0,-0.13333333,0,666.66667)" /><path
         id="path24"
         d="m 2452.72,220.922 -0.01,0.109 0.01,-0.109"
         style="fill:#3b3e3f;fill-opacity:1;fill-rule:nonzero;stroke:none"
         transform="matrix(0.13333333,0,0,-0.13333333,0,666.66667)" /><path
         id="path25"
         d="m 2453.54,215.73 h 0.01 c -0.31,1.481 -0.54,2.942 -0.74,4.391 0.2,-1.473 0.43,-2.922 0.73,-4.391"
         style="fill:#3b3e3f;fill-opacity:1;fill-rule:nonzero;stroke:none"
         transform="matrix(0.13333333,0,0,-0.13333333,0,666.66667)" /><path
         id="path26"
         d="m 2458.9,200.691 -0.09,0.207 0.09,-0.207"
         style="fill:#3b3e3f;fill-opacity:1;fill-rule:nonzero;stroke:none"
         transform="matrix(0.13333333,0,0,-0.13333333,0,666.66667)" /><path
         id="path27"
         d="m 2458.38,201.699 -0.39,0.832 0.39,-0.832"
         style="fill:#3b3e3f;fill-opacity:1;fill-rule:nonzero;stroke:none"
         transform="matrix(0.13333333,0,0,-0.13333333,0,666.66667)" /><path
         id="path28"
         d="m 2455.04,209.941 c 0.8,-2.5 1.76,-4.921 2.86,-7.23 -1.12,2.348 -2.06,4.777 -2.84,7.23 h -0.02"
         style="fill:#3b3e3f;fill-opacity:1;fill-rule:nonzero;stroke:none"
         transform="matrix(0.13333333,0,0,-0.13333333,0,666.66667)" /><path
         id="path29"
         d="m 2515.46,283.012 c 3.13,0 5.44,-0.242 8.08,-0.692 l 0.77,4.782 c 0,0 -7.33,2.25 -16.95,1.449 l -0.76,2.597 c 2.99,0.633 5.25,3.293 5.25,6.473 0,3.629 -2.98,6.578 -6.62,6.578 -3.65,0 -6.6,-2.949 -6.6,-6.578 0,-3.18 2.25,-5.84 5.23,-6.473 l 0.85,-2.898 c -10.23,-1.398 -18.36,-5.391 -18.36,-5.391 l 1.44,-4.398 c 6.18,2.059 11.54,3.309 16.4,3.828 4.76,0.5 8.35,0.723 11.27,0.723"
         style="fill:#3b3e3f;fill-opacity:1;fill-rule:nonzero;stroke:none"
         transform="matrix(0.13333333,0,0,-0.13333333,0,666.66667)" /><path
         id="path30"
         d="m 2458.78,258.91 0.03,0.051 0.7,0.879 -1.94,1.398 -3.06,2.242 c -0.15,-0.238 -4.96,-4.648 -8.75,-12.808 l -0.55,0.758 c -1.14,1.242 -2.73,1.871 -4.74,1.832 h -0.1 c -1.25,0 -2.11,0.418 -2.66,0.918 0.55,0.711 0.88,1.601 0.88,2.59 0,2.3 -1.87,4.171 -4.18,4.171 -2.3,0 -4.18,-1.871 -4.18,-4.171 0,-2.321 1.88,-4.18 4.18,-4.18 l 1.06,0.129 c 1.01,-1.149 2.64,-2.137 5.04,-2.09 1.23,0.012 2.13,-0.297 2.73,-0.981 l 1,-2.679 -0.03,-0.02 c -2.73,-7.429 -1.93,-16.679 -1.93,-16.679 l 6.6,-0.27 c 0.12,3.371 0.62,9.27 2.33,13.941 3.28,9.059 7.4,14.719 7.57,14.969"
         style="fill:#3b3e3f;fill-opacity:1;fill-rule:nonzero;stroke:none"
         transform="matrix(0.13333333,0,0,-0.13333333,0,666.66667)" /><path
         id="path31"
         d="m 2572.95,277.5 c -2.3,0 -4.18,-1.879 -4.18,-4.191 l 0.15,-1.02 c -1.15,-1.039 -2.14,-2.68 -2.11,-5.07 0.02,-1.227 -0.3,-2.117 -0.96,-2.739 l -1.85,-0.878 c -4.92,6.898 -10.97,11.097 -10.97,11.097 l -4.75,-5.078 c 3.6,-3.262 7.25,-7.34 10.8,-12.441 2.46,-3.52 4.99,-8.071 7.1,-12.598 l 6.41,3.047 c 0,0 -2.92,7.223 -7.03,13.703 l 2.06,1.199 c 1.26,1.117 1.86,2.719 1.83,4.739 -0.02,1.289 0.41,2.171 0.92,2.761 0.72,-0.562 1.62,-0.89 2.58,-0.89 2.32,0 4.19,1.859 4.19,4.168 0,2.312 -1.87,4.191 -4.19,4.191"
         style="fill:#3b3e3f;fill-opacity:1;fill-rule:nonzero;stroke:none"
         transform="matrix(0.13333333,0,0,-0.13333333,0,666.66667)" /><path
         id="path32"
         d="m 2556.36,219.969 c -8.82,-4.278 -23.31,-9.949 -42.4,-12.617 -7.5,-1.032 -14.74,-1.403 -21.43,-1.403 -8.69,0 -16.38,0.633 -22.27,1.383 -6.72,0.84 -11.98,1.887 -15.2,2.609 0.78,-2.453 1.72,-4.882 2.84,-7.23 l 0.09,-0.18 0.39,-0.832 0.43,-0.801 0.09,-0.207 c 1.89,-3.562 4.18,-6.839 6.76,-9.679 9,-9.84 18.17,-11.403 18.26,-11.422 l 0.14,-0.008 0.13,-0.043 c 0.09,-0.039 8.21,-2.668 20.58,-2.668 12.15,0 24.09,2.461 35.45,7.309 8.42,4.3 16.39,10.851 20.35,16.679 3.04,4.52 5.25,9.332 6.55,14.332 0.7,2.661 1.26,6.93 0.92,11.411 -2.47,-1.672 -6.39,-4.032 -11.68,-6.633"
         style="fill:#3b3e3f;fill-opacity:1;fill-rule:nonzero;stroke:none"
         transform="matrix(0.13333333,0,0,-0.13333333,0,666.66667)" /><path
         id="path33"
         d="m 2486.78,261.422 c 9.73,0 17.61,-7.883 17.61,-17.613 0,-9.727 -7.88,-17.59 -17.61,-17.59 -9.72,0 -17.59,7.863 -17.59,17.59 0,9.73 7.87,17.613 17.59,17.613 z m 51.51,-0.43 c 6.01,0 10.91,-4.902 10.91,-10.902 0,-6.02 -4.9,-10.899 -10.91,-10.899 -6,0 -10.88,4.879 -10.88,10.899 0,6 4.88,10.902 10.88,10.902 z m -76.69,-4.172 c -0.25,-0.379 -4.06,-5.789 -7.09,-14.09 -2.24,-6.218 -2.15,-15.269 -2.15,-15.359 v -0.039 c 0,-2.121 0.12,-4.211 0.35,-6.301 l 0.01,-0.109 0.09,-0.801 c 0.2,-1.449 0.43,-2.91 0.74,-4.391 4.38,-1.109 30.49,-7.199 59.68,-3.14 18.3,2.562 32.2,7.961 40.63,12.051 7.01,3.398 11.51,6.468 13.24,7.738 -1.73,6.422 -6.5,16.512 -10.88,22.801 -12.55,17.902 -26.05,22.492 -32.99,23.629 -2.65,0.433 -4.77,0.691 -7.77,0.691 -2.8,0 -6.27,-0.23 -10.89,-0.719 -4.65,-0.48 -9.82,-1.699 -15.84,-3.73 -8.42,-2.809 -16.03,-7.242 -22.04,-12.781 l -0.21,-0.2 c -0.87,-0.832 -2.73,-2.539 -4.88,-5.25"
         style="fill:#3b3e3f;fill-opacity:1;fill-rule:nonzero;stroke:none"
         transform="matrix(0.13333333,0,0,-0.13333333,0,666.66667)" /><path
         id="path34"
         d="m -181.26367,554.52553 c 0,5.2932 -141.18,9.58693 -315.33333,9.58693 -174.15333,0 -315.33332,-4.29373 -315.33332,-9.58693 0,-5.2948 141.17999,-9.58654 315.33332,-9.58654 174.15333,0 315.33333,4.29174 315.33333,9.58654"
         style="fill:#e8e9ea;fill-opacity:1;fill-rule:nonzero;stroke:none;stroke-width:0.133333" /><path
         id="path35"
         d="m -181.26367,347.21233 c 0,5.29467 -141.18,9.588 -315.33333,9.588 -174.15333,0 -315.33332,-4.29333 -315.33332,-9.588 0,-5.29467 141.17999,-9.58533 315.33332,-9.58533 174.15333,0 315.33333,4.29066 315.33333,9.58533"
         style="fill:#e8e9ea;fill-opacity:1;fill-rule:nonzero;stroke:none;stroke-width:0.133333" /><path
         id="path37"
         d="m -211.82634,140.179 h -209.58533 v -27.49066 h 209.58533 V 140.179"
         style="fill:#5a5c60;fill-opacity:1;fill-rule:nonzero;stroke:none;stroke-width:0.133333" /><path
         id="path38"
         d="m -211.03967,90.752337 -20.89867,-8.514667 c -34.14533,-19.854666 -70.96533,-23.475999 -97.77866,-17.470666 -12.60133,2.822667 -21.72133,9.558667 -28.87467,16.848 -8.128,8.284 -13.23733,12.918666 -13.27333,12.953333 -3.80533,2.054666 -7.99467,3.764 -11.32,4.492 l -43.256,9.462663 c -5.732,1.252 -10.42133,7.07867 -10.42133,12.94534 v 8.044 c 0,5.86666 4.80133,10.66666 10.66666,10.66666 h 12.24934 c 0,-13.44666 10.90133,-24.348 24.34933,-24.348 13.448,0 24.34933,10.90134 24.34933,24.348 h 89.08 c 0,-13.44666 10.90133,-24.348 24.34933,-24.348 13.44534,0 24.34667,10.90134 24.34667,24.348 h 15.64533 c 5.868,0 10.66667,-4.8 10.66667,-10.66666 v -24.068 c 0,-5.86667 -4.44533,-12.477337 -9.88,-14.692003"
         style="fill:#999999;fill-opacity:1;fill-rule:nonzero;stroke:none;stroke-width:0.133333" /><path
         id="path39"
         d="m -411.513,140.179 c 0,12.104 9.812,21.91734 21.916,21.91734 12.104,0 21.91733,-9.81334 21.91733,-21.91734 0,-12.104 -9.81333,-21.916 -21.91733,-21.916 -12.104,0 -21.916,9.812 -21.916,21.916"
         style="fill:#42454c;fill-opacity:1;fill-rule:nonzero;stroke:none;stroke-width:0.133333" /><path
         id="path40"
         d="m -402.84633,139.59634 c 0,7.31733 5.932,13.24933 13.24933,13.24933 7.31733,0 13.25067,-5.932 13.25067,-13.24933 0,-7.31867 -5.93334,-13.25067 -13.25067,-13.25067 -7.31733,0 -13.24933,5.932 -13.24933,13.25067"
         style="fill:#818691;fill-opacity:1;fill-rule:nonzero;stroke:none;stroke-width:0.133333" /><path
         id="path41"
         d="m -273.73567,140.179 c 0,12.104 9.81333,21.91734 21.91733,21.91734 12.104,0 21.916,-9.81334 21.916,-21.91734 0,-12.104 -9.812,-21.916 -21.916,-21.916 -12.104,0 -21.91733,9.812 -21.91733,21.916"
         style="fill:#42454c;fill-opacity:1;fill-rule:nonzero;stroke:none;stroke-width:0.133333" /><path
         id="path42"
         d="m -265.069,139.59634 c 0,7.31733 5.93333,13.24933 13.25066,13.24933 7.31734,0 13.24934,-5.932 13.24934,-13.24933 0,-7.31867 -5.932,-13.25067 -13.24934,-13.25067 -7.31733,0 -13.25066,5.932 -13.25066,13.25067"
         style="fill:#818691;fill-opacity:1;fill-rule:nonzero;stroke:none;stroke-width:0.133333" /><path
         id="path43"
         d="m -365.41167,99.132337 h 54.66667 v 37.333333 h -47.55467 c 0,0 0.66667,-11.11067 -7.112,-17.33333 V 99.132337"
         style="fill:#8d8d8e;fill-opacity:1;fill-rule:nonzero;stroke:none;stroke-width:0.133333" /><path
         id="path44"
         d="m -324.069,102.36434 c 0,0.668 0.54266,1.20933 1.212,1.20933 h 7.69466 c 0.66934,0 1.208,-0.54133 1.208,-1.20933 0,-0.668 -0.53866,-1.20934 -1.208,-1.20934 h -7.69466 c -0.66934,0 -1.212,0.54134 -1.212,1.20934"
         style="fill:#f2e7e8;fill-opacity:1;fill-rule:nonzero;stroke:none;stroke-width:0.133333" /><path
         id="path45"
         d="m -306.485,99.132337 h 54.66666 V 110.911 c 0,0 -24.48133,-0.22266 -27.33333,25.55467 H -306.485 V 99.132337"
         style="fill:#8d8d8e;fill-opacity:1;fill-rule:nonzero;stroke:none;stroke-width:0.133333" /><path
         id="path46"
         d="m -265.069,102.36434 c 0,0.668 0.54266,1.20933 1.20933,1.20933 h 7.69733 c 0.66667,0 1.208,-0.54133 1.208,-1.20933 0,-0.668 -0.54133,-1.20934 -1.208,-1.20934 h -7.69733 c -0.66667,0 -1.20933,0.54134 -1.20933,1.20934"
         style="fill:#f2e7e8;fill-opacity:1;fill-rule:nonzero;stroke:none;stroke-width:0.133333" /><path
         id="path47"
         d="M -434.91167,120.78567 H -420.245 V 111.119 h -8.33333 c 0,0 -5.33334,2.33334 -6.33334,9.66667"
         style="fill:#f9e873;fill-opacity:1;fill-rule:nonzero;stroke:none;stroke-width:0.133333" /><path
         id="path48"
         d="m -201.15967,119.13234 h -4.252 v -12.888 h 4.252 v 12.888"
         style="fill:#e24627;fill-opacity:1;fill-rule:nonzero;stroke:none;stroke-width:0.133333" /><path
         id="path49"
         d="m -365.41167,96.688337 c 0,0 12.888,-14.888 18,-18.666667 5.112,-3.777333 19.112,-10.889333 36.66667,-10.889333 v 29.556 h -54.66667"
         style="fill:#caebfe;fill-opacity:1;fill-rule:nonzero;stroke:none;stroke-width:0.133333" /><path
         id="path50"
         d="m -251.81834,76.836337 c -9.59066,-3.906666 -29.85733,-9.704 -54.66666,-9.704 v 29.556 h 54.66666 v -19.852"
         style="fill:#caebfe;fill-opacity:1;fill-rule:nonzero;stroke:none;stroke-width:0.133333" /><path
         id="path51"
         d="m -236.545,85.675004 c -4.25467,-2.862667 -8.516,-5.578667 -11.53334,-7.144 v 18.157333 h 26.16667 c 0,0 1.80933,0 2.79867,0 1.93333,0 -2.008,-2.222667 -2.008,-2.222667 l -15.424,-8.790666"
         style="fill:#caebfe;fill-opacity:1;fill-rule:nonzero;stroke:none;stroke-width:0.133333" /><path
         id="path52"
         d="m -366.449,96.58967 c 0,-0.469333 0.42533,-1.278667 0.94267,-1.796 l 4.672,-4.672 c 0.51866,-0.518666 0.94266,-0.341333 0.94266,0.390667 v 5.596 c 0,0.733333 -0.60133,1.333333 -1.33333,1.333333 h -3.89067 c -0.73066,0 -1.33333,-0.384 -1.33333,-0.852"
         style="fill:#42454c;fill-opacity:1;fill-rule:nonzero;stroke:none;stroke-width:0.133333" /><path
         id="path53"
         d="m -773.63859,155.40834 c 0,3.67866 -2.5448,6.688 -5.65373,6.688 h -5.45307 c -3.1084,0 -5.6516,-3.00934 -5.6516,-6.688 v -27.39067 c 0,-3.67867 2.5432,-6.688 5.6516,-6.688 h 5.45307 c 3.10893,0 5.65373,3.00933 5.65373,6.688 v 27.39067"
         style="fill:#42454c;fill-opacity:1;fill-rule:nonzero;stroke:none;stroke-width:0.133333" /><path
         id="path54"
         d="m -652.18766,155.40834 c 0,3.67866 -2.54667,6.688 -5.65467,6.688 h -5.452 c -3.108,0 -5.65333,-3.00934 -5.65333,-6.688 v -27.39067 c 0,-3.67867 2.54533,-6.688 5.65333,-6.688 h 5.452 c 3.108,0 5.65467,3.00933 5.65467,6.688 v 27.39067"
         style="fill:#42454c;fill-opacity:1;fill-rule:nonzero;stroke:none;stroke-width:0.133333" /><path
         id="path55"
         d="m -660.59433,97.768337 c 0,0 -10.27866,-23.109333 -17.39466,-30.221333 -6.71334,-6.708 -22.57414,-9.458666 -40.94294,-9.750666 v -0.028 c -0.55933,0 -1.112,0.01067 -1.66773,0.01467 -0.23013,-0.0013 -0.46187,-0.0027 -0.69107,-0.0053 -0.23173,0.0027 -0.46253,0.004 -0.69266,0.0053 -0.55627,-0.004 -1.1084,-0.01467 -1.66827,-0.01467 v 0.028 c -18.3688,0.292 -34.2292,3.042666 -40.94266,9.750666 -7.11627,7.112 -17.39427,30.221333 -17.39427,30.221333 -10.65053,8.856003 -10.5516,40.476003 -6.9672,52.833333 h 135.32813 c 3.58533,-12.35733 3.68267,-43.97733 -6.96667,-52.833333"
         style="fill:#999999;fill-opacity:1;fill-rule:nonzero;stroke:none;stroke-width:0.133333" /><path
         id="path56"
         d="m -686.19299,68.408337 c -8.89467,-6.317333 -35.09774,-5.557333 -35.09774,-5.557333 0,0 -26.20466,-0.76 -35.09893,5.557333 -8.89586,6.317334 -19.57093,28.898666 -19.57093,28.898666 h 54.66986 54.66574 c 0,0 -10.672,-22.581332 -19.568,-28.898666"
         style="fill:#caebfe;fill-opacity:1;fill-rule:nonzero;stroke:none;stroke-width:0.133333" /><path
         id="path57"
         d="m -667.69699,98.455003 c 0,-0.725333 0.65733,-1.976 1.45866,-2.777333 l 7.22534,-7.225333 c 0.80133,-0.801333 1.45866,-0.529333 1.45866,0.604 v 8.654666 c 0,1.134667 -0.93066,2.062667 -2.06266,2.062667 h -6.01734 c -1.132,0 -2.06266,-0.594667 -2.06266,-1.318667"
         style="fill:#42454c;fill-opacity:1;fill-rule:nonzero;stroke:none;stroke-width:0.133333" /><path
         id="path58"
         d="m -774.88766,98.455003 c 0,-0.725333 -0.65826,-1.976 -1.45773,-2.777333 l -7.2276,-7.225333 c -0.80053,-0.801333 -1.4584,-0.529333 -1.4584,0.604 v 8.654666 c 0,1.134667 0.93133,2.062667 2.06253,2.062667 h 6.01827 c 1.13067,0 2.06293,-0.594667 2.06293,-1.318667"
         style="fill:#42454c;fill-opacity:1;fill-rule:nonzero;stroke:none;stroke-width:0.133333" /><path
         id="path59"
         d="m -786.21886,141.711 c 0,1.06267 0.614,1.92267 1.3692,1.92267 h 8.712 c 0.7552,0 1.3672,-0.86 1.3672,-1.92267 0,-1.06133 -0.612,-1.92133 -1.3672,-1.92133 h -8.712 c -0.7552,0 -1.3692,0.86 -1.3692,1.92133"
         style="fill:#ffffff;fill-opacity:1;fill-rule:nonzero;stroke:none;stroke-width:0.133333" /><path
         id="path60"
         d="m -667.81166,141.711 c 0,1.06267 0.61467,1.92267 1.36933,1.92267 h 8.71067 c 0.756,0 1.368,-0.86 1.368,-1.92267 0,-1.06133 -0.612,-1.92133 -1.368,-1.92133 h -8.71067 c -0.75466,0 -1.36933,0.86 -1.36933,1.92133"
         style="fill:#ffffff;fill-opacity:1;fill-rule:nonzero;stroke:none;stroke-width:0.133333" /><path
         id="path61"
         d="m -763.39912,113.82967 h -11.09214 c 0,0 -4.41773,2.33333 -5.24586,9.66667 h 9.436 2.71293 9.43653 c -0.82973,-7.33334 -5.24746,-9.66667 -5.24746,-9.66667"
         style="fill:#f9e873;fill-opacity:1;fill-rule:nonzero;stroke:none;stroke-width:0.133333" /><path
         id="path62"
         d="m -668.09433,113.82967 h -11.092 c 0,0 -4.41733,2.33333 -5.24533,9.66667 h 9.43467 2.71333 9.43733 c -0.83066,-7.33334 -5.248,-9.66667 -5.248,-9.66667"
         style="fill:#f9e873;fill-opacity:1;fill-rule:nonzero;stroke:none;stroke-width:0.133333" /><path
         id="path63"
         d="m -702.76366,143.31634 h -39.3932 v -9.89867 h 39.3932 v 9.89867"
         style="fill:#ffffff;fill-opacity:1;fill-rule:nonzero;stroke:none;stroke-width:0.133333" /><path
         id="path64"
         d="m -721.08659,113.88967 h -31.85933 c 2.22293,3.57867 5.11093,15.08667 5.11093,15.08667 h 24 2.7484 24 c 0,0 2.88826,-11.508 5.11093,-15.08667 h -29.11093"
         style="fill:#858689;fill-opacity:1;fill-rule:nonzero;stroke:none;stroke-width:0.133333" /><path
         id="path65"
         d="m -698.21059,117.38434 c 0,0.41466 -0.33534,0.75066 -0.75,0.75066 h -47 c -0.41347,0 -0.75,-0.336 -0.75,-0.75066 0,-0.41334 0.33653,-0.74934 0.75,-0.74934 h 47 c 0.41466,0 0.75,0.336 0.75,0.74934"
         style="fill:#6d6e72;fill-opacity:1;fill-rule:nonzero;stroke:none;stroke-width:0.133333" /><path
         id="path66"
         d="m -698.21059,121.38434 c 0,0.41466 -0.33534,0.75066 -0.75,0.75066 h -47 c -0.41347,0 -0.75,-0.336 -0.75,-0.75066 0,-0.41334 0.33653,-0.74934 0.75,-0.74934 h 47 c 0.41466,0 0.75,0.336 0.75,0.74934"
         style="fill:#6d6e72;fill-opacity:1;fill-rule:nonzero;stroke:none;stroke-width:0.133333" /><path
         id="path67"
         d="m -698.21059,125.38434 c 0,0.41466 -0.33534,0.75066 -0.75,0.75066 h -47 c -0.41347,0 -0.75,-0.336 -0.75,-0.75066 0,-0.41334 0.33653,-0.74934 0.75,-0.74934 h 47 c 0.41466,0 0.75,0.336 0.75,0.74934"
         style="fill:#6d6e72;fill-opacity:1;fill-rule:nonzero;stroke:none;stroke-width:0.133333" /><path
         id="path68"
         d="m -601.33166,98.455003 c 0,-0.725333 -0.65734,-1.976 -1.45867,-2.777333 l -7.22666,-7.225333 c -0.80134,-0.801333 -1.45867,-0.529333 -1.45867,0.604 v 8.654666 c 0,1.134667 0.932,2.062667 2.06267,2.062667 h 6.01866 c 1.13067,0 2.06267,-0.594667 2.06267,-1.318667"
         style="fill:#42454c;fill-opacity:1;fill-rule:nonzero;stroke:none;stroke-width:0.133333" /><path
         id="path69"
         d="m -494.141,98.455003 c 0,-0.725333 0.65867,-1.976 1.45867,-2.777333 l 7.22533,-7.225333 c 0.80267,-0.801333 1.45867,-0.529333 1.45867,0.604 v 8.654666 c 0,1.134667 -0.92933,2.062667 -2.06267,2.062667 h -6.01733 c -1.13067,0 -2.06267,-0.594667 -2.06267,-1.318667"
         style="fill:#42454c;fill-opacity:1;fill-rule:nonzero;stroke:none;stroke-width:0.133333" /><path
         id="path70"
         d="m -495.389,155.40834 c 0,3.67866 2.544,6.688 5.65334,6.688 h 5.45333 c 3.10667,0 5.652,-3.00934 5.652,-6.688 v -27.39067 c 0,-3.67867 -2.54533,-6.688 -5.652,-6.688 h -5.45333 c -3.10934,0 -5.65334,3.00933 -5.65334,6.688 v 27.39067"
         style="fill:#42454c;fill-opacity:1;fill-rule:nonzero;stroke:none;stroke-width:0.133333" /><path
         id="path71"
         d="m -616.84099,155.40834 c 0,3.67866 2.54533,6.688 5.65333,6.688 h 5.45333 c 3.108,0 5.652,-3.00934 5.652,-6.688 v -27.39067 c 0,-3.67867 -2.544,-6.688 -5.652,-6.688 h -5.45333 c -3.108,0 -5.65333,3.00933 -5.65333,6.688 v 27.39067"
         style="fill:#42454c;fill-opacity:1;fill-rule:nonzero;stroke:none;stroke-width:0.133333" /><path
         id="path72"
         d="m -608.43433,97.768337 c 0,0 10.27867,-23.109333 17.39333,-30.221333 6.71467,-6.708 22.57467,-9.458666 40.944,-9.750666 v -0.028 c 0.55867,0 1.112,0.01067 1.66667,0.01467 0.23067,-0.0013 0.46267,-0.0027 0.692,-0.0053 0.232,0.0027 0.46267,0.004 0.692,0.0053 0.55733,-0.004 1.10933,-0.01467 1.66933,-0.01467 v 0.028 c 18.368,0.292 34.22934,3.042666 40.944,9.750666 7.11467,7.112 17.39334,30.221333 17.39334,30.221333 10.65066,8.856003 10.552,40.476003 6.96666,52.833333 h -135.32799 c -3.58534,-12.35733 -3.684,-43.97733 6.96666,-52.833333"
         style="fill:#999999;fill-opacity:1;fill-rule:nonzero;stroke:none;stroke-width:0.133333" /><path
         id="path73"
         d="m -580.05966,70.017671 c 8.19066,-5.24 32.32133,-4.612 32.32133,-4.612 0,0 24.13333,-0.628 32.32267,4.612 8.19466,5.238666 18.02533,23.970666 18.02533,23.970666 h -50.348 -50.34533 c 0,0 9.82933,-18.732 18.024,-23.970666"
         style="fill:#caebfe;fill-opacity:1;fill-rule:nonzero;stroke:none;stroke-width:0.133333" /><path
         id="path74"
         d="m -529.50233,131.823 h -36.46933 c -6.95867,0 -12.59867,-5.64133 -12.59867,-12.59866 0,-6.95867 5.64,-12.6 12.59867,-12.6 h 36.46933 c 6.95867,0 12.59867,5.64133 12.59867,12.6 0,6.95733 -5.64,12.59866 -12.59867,12.59866"
         style="fill:#8e8e8e;fill-opacity:1;fill-rule:nonzero;stroke:none;stroke-width:0.133333" /><path
         id="path75"
         d="m -563.02233,123.64834 h 32.90667 v -8.268 h -32.90667 v 8.268"
         style="fill:#ffffff;fill-opacity:1;fill-rule:nonzero;stroke:none;stroke-width:0.133333" /><path
         id="path76"
         d="m -587.98766,121.32967 h -17 v -12.84 h 17 v 12.84"
         style="fill:#e24627;fill-opacity:1;fill-rule:nonzero;stroke:none;stroke-width:0.133333" /><path
         id="path77"
         d="m -587.98766,121.32967 h -4.26134 v -12.84 h 4.26134 v 12.84"
         style="fill:#cc2b11;fill-opacity:1;fill-rule:nonzero;stroke:none;stroke-width:0.133333" /><path
         id="path78"
         d="m -592.249,113.06967 h -12.73866 v -4.58 h 12.73866 v 4.58"
         style="fill:#ef583f;fill-opacity:1;fill-rule:nonzero;stroke:none;stroke-width:0.133333" /><path
         id="path79"
         d="m -505.89166,121.32967 h 17 v -12.84 h -17 v 12.84"
         style="fill:#e24627;fill-opacity:1;fill-rule:nonzero;stroke:none;stroke-width:0.133333" /><path
         id="path80"
         d="m -505.89166,121.32967 h 4.26133 v -12.84 h -4.26133 v 12.84"
         style="fill:#cc2b11;fill-opacity:1;fill-rule:nonzero;stroke:none;stroke-width:0.133333" /><path
         id="path81"
         d="m -501.63033,113.06967 h 12.73867 v -4.58 h -12.73867 v 4.58"
         style="fill:#ef583f;fill-opacity:1;fill-rule:nonzero;stroke:none;stroke-width:0.133333" /><path
         id="path82"
         d="m -441.53167,325.79233 h 231.58 V 292.8402 h -231.58 z"
         style="fill:#3565aa;fill-opacity:1;fill-rule:nonzero;stroke:none;stroke-width:0.133333" /><path
         id="path83"
         d="M -205.59434,278.32433 -220.021,253.631 c -2.44,-4.17733 -8.39334,-7.59333 -13.22934,-7.59333 h -122.60133 c -4.836,0 -12.23733,1.948 -16.448,4.328 l -30.69333,17.352 c -4.208,2.38 -11.19467,6.09066 -15.524,8.24533 l -24.31733,12.10267 c -4.328,2.15466 -8.572,7.812 -9.432,12.57066 l -2.976,16.50267 c -0.86267,4.76 2.39333,8.65333 7.22933,8.65333 h 13.84267 c 0,-15.24667 12.36,-27.60533 27.60666,-27.60533 15.248,0 27.60667,12.35866 27.60667,27.60533 h 104.45066 c 0,-15.24667 12.36,-27.60533 27.60667,-27.60533 15.248,0 27.60933,12.35866 27.60933,27.60533 h 9.33867 c 4.836,0 8.792,-3.95733 8.792,-8.79333 v -22.29067 c 0,-4.836 -1.99467,-12.208 -4.43467,-16.384"
         style="fill:#5887db;fill-opacity:1;fill-rule:nonzero;stroke:none;stroke-width:0.133333" /><path
         id="path84"
         d="m -449.86767,300.54966 h 4 l 3.352,8.76667 H -452.573 l 2.70533,-8.76667"
         style="fill:#f9e873;fill-opacity:1;fill-rule:nonzero;stroke:none;stroke-width:0.133333" /><path
         id="path85"
         d="m -201.15967,297.36966 c 0,0 -6.59333,-0.34 -6.59333,10.168 h 6.59333 v -10.168"
         style="fill:#e24627;fill-opacity:1;fill-rule:nonzero;stroke:none;stroke-width:0.133333" /><path
         id="path86"
         d="m -337.53433,321.92033 h -38.16134 c 0.732,-13.432 -11.11466,-21.37067 -11.11466,-21.37067 V 285.915 h 49.276 v 36.00533"
         style="fill:#4676c2;fill-opacity:1;fill-rule:nonzero;stroke:none;stroke-width:0.133333" /><path
         id="path87"
         d="m -352.12767,290.32967 c 0,0.73333 0.596,1.32933 1.33067,1.32933 h 8.45733 c 0.73467,0 1.328,-0.596 1.328,-1.32933 0,-0.73467 -0.59333,-1.32934 -1.328,-1.32934 h -8.45733 c -0.73467,0 -1.33067,0.59467 -1.33067,1.32934"
         style="fill:#f2e7e8;fill-opacity:1;fill-rule:nonzero;stroke:none;stroke-width:0.133333" /><path
         id="path88"
         d="m -332.21967,321.92033 h 47.86973 v -36.0052 h -47.86973 z"
         style="fill:#4676c2;fill-opacity:1;fill-rule:nonzero;stroke:none;stroke-width:0.133333" /><path
         id="path89"
         d="m -299.12767,290.32967 c 0,0.73333 0.596,1.32933 1.33067,1.32933 h 8.45733 c 0.73467,0 1.328,-0.596 1.328,-1.32933 0,-0.73467 -0.59333,-1.32934 -1.328,-1.32934 h -8.45733 c -0.73467,0 -1.33067,0.59467 -1.33067,1.32934"
         style="fill:#f2e7e8;fill-opacity:1;fill-rule:nonzero;stroke:none;stroke-width:0.133333" /><path
         id="path90"
         d="m -284.349,283.37233 h -47.87067 V 251.263 h 47.87067 v 32.10933"
         style="fill:#caebfe;fill-opacity:1;fill-rule:nonzero;stroke:none;stroke-width:0.133333" /><path
         id="path91"
         d="m -278.977,251.263 h 44.45333 l 14.64533,32.10933 H -278.977 V 251.263"
         style="fill:#caebfe;fill-opacity:1;fill-rule:nonzero;stroke:none;stroke-width:0.133333" /><path
         id="path92"
         d="m -392.001,283.37233 v -14.116 l -25.14533,14.116 z"
         style="fill:#caebfe;fill-opacity:1;fill-rule:nonzero;stroke:none;stroke-width:0.133333" /><path
         id="path93"
         d="m -352.04767,251.263 c -8.35866,0 -14.956,3.95867 -14.956,3.95867 l -19.80666,11.12 v 17.03066 h 49.276 V 251.263 h -14.51334"
         style="fill:#caebfe;fill-opacity:1;fill-rule:nonzero;stroke:none;stroke-width:0.133333" /><path
         id="path94"
         d="m -418.38633,283.74833 c 0,-0.51466 0.46666,-1.40266 1.03733,-1.97333 l 5.13467,-5.13467 c 0.568,-0.568 1.03466,-0.376 1.03466,0.43067 v 6.14933 c 0,0.80534 -0.66,1.46534 -1.464,1.46534 h -4.276 c -0.80533,0 -1.46666,-0.42134 -1.46666,-0.93734"
         style="fill:#42454c;fill-opacity:1;fill-rule:nonzero;stroke:none;stroke-width:0.133333" /><path
         id="path95"
         d="m -201.15967,327.25766 h -256.356 V 318.991 h 256.356 v 8.26666"
         style="fill:#a1a9b7;fill-opacity:1;fill-rule:nonzero;stroke:none;stroke-width:0.133333" /><path
         id="path96"
         d="m -430.649,325.79366 c 0,13.30267 10.784,24.08534 24.08533,24.08534 13.30534,0 24.08934,-10.78267 24.08934,-24.08534 0,-13.304 -10.784,-24.08933 -24.08934,-24.08933 -13.30133,0 -24.08533,10.78533 -24.08533,24.08933"
         style="fill:#42454c;fill-opacity:1;fill-rule:nonzero;stroke:none;stroke-width:0.133333" /><path
         id="path97"
         d="m -421.125,325.15233 c 0,8.04133 6.51733,14.56267 14.56133,14.56267 8.04267,0 14.56267,-6.52134 14.56267,-14.56267 0,-8.04267 -6.52,-14.564 -14.56267,-14.564 -8.044,0 -14.56133,6.52133 -14.56133,14.564"
         style="fill:#818691;fill-opacity:1;fill-rule:nonzero;stroke:none;stroke-width:0.133333" /><path
         id="path98"
         d="m -270.985,325.79366 c 0,13.30267 10.784,24.08534 24.08533,24.08534 13.30533,0 24.08933,-10.78267 24.08933,-24.08534 0,-13.304 -10.784,-24.08933 -24.08933,-24.08933 -13.30133,0 -24.08533,10.78533 -24.08533,24.08933"
         style="fill:#42454c;fill-opacity:1;fill-rule:nonzero;stroke:none;stroke-width:0.133333" /><path
         id="path99"
         d="m -261.461,325.15233 c 0,8.04133 6.51733,14.56267 14.56133,14.56267 8.04267,0 14.56267,-6.52134 14.56267,-14.56267 0,-8.04267 -6.52,-14.564 -14.56267,-14.564 -8.044,0 -14.56133,6.52133 -14.56133,14.564"
         style="fill:#818691;fill-opacity:1;fill-rule:nonzero;stroke:none;stroke-width:0.133333" /><path
         id="path100"
         d="m -496.55566,277.14833 c 0,-0.72533 0.656,-1.976 1.45866,-2.77733 l 7.22667,-7.22533 c 0.8,-0.80134 1.45867,-0.52934 1.45867,0.604 v 8.656 c 0,1.13333 -0.93334,2.06266 -2.06267,2.06266 h -6.01867 c -1.13333,0 -2.06266,-0.59466 -2.06266,-1.32"
         style="fill:#42454c;fill-opacity:1;fill-rule:nonzero;stroke:none;stroke-width:0.133333" /><path
         id="path101"
         d="m -598.91566,277.14833 c 0,-0.72533 -0.65734,-1.976 -1.45867,-2.77733 l -7.22533,-7.22533 c -0.80133,-0.80134 -1.45867,-0.52934 -1.45867,0.604 v 8.656 c 0,1.13333 0.93067,2.06266 2.06267,2.06266 h 6.01733 c 1.132,0 2.06267,-0.59466 2.06267,-1.32"
         style="fill:#42454c;fill-opacity:1;fill-rule:nonzero;stroke:none;stroke-width:0.133333" /><path
         id="path102"
         d="m -593.94366,343.19233 c 0,3.676 -2.54534,6.68667 -5.65334,6.68667 h -5.45333 c -3.108,0 -5.652,-3.01067 -5.652,-6.68667 v -27.392 c 0,-3.67733 2.544,-6.68667 5.652,-6.68667 h 5.45333 c 3.108,0 5.65334,3.00934 5.65334,6.68667 v 27.392"
         style="fill:#42454c;fill-opacity:1;fill-rule:nonzero;stroke:none;stroke-width:0.133333" /><path
         id="path103"
         d="m -484.993,343.19233 c 0,3.676 -2.54666,6.68667 -5.65333,6.68667 h -5.45333 c -3.10934,0 -5.65467,-3.01067 -5.65467,-6.68667 v -27.392 c 0,-3.67733 2.54533,-6.68667 5.65467,-6.68667 h 5.45333 c 3.10667,0 5.65333,3.00934 5.65333,6.68667 v 27.392"
         style="fill:#42454c;fill-opacity:1;fill-rule:nonzero;stroke:none;stroke-width:0.133333" /><path
         id="path104"
         d="m -488.173,283.80567 c -1.10133,-4.06934 -2.79333,-10.756 -3.76,-14.86134 l -3.70933,-15.73733 c -0.968,-4.104 -5.208,-7.46133 -9.424,-7.46133 H -531.117 c -4.216,0 -20.99466,0 -22.62,0 -1.62533,0 -6.404,0 -10.62133,0 h -26.048 c -4.21733,0 -8.45733,3.35733 -9.424,7.46133 l -3.70933,15.73733 c -0.96667,4.10534 -2.66,10.792 -3.76133,14.86134 l -2.56267,9.47333 c -1.10133,4.07066 -2.00267,10.84933 -2.00267,15.06533 V 328.787 c 0,4.21466 3.44934,7.66533 7.66534,7.66533 h 39.84266 c 4.21733,0 8.996,0 10.62133,0 1.62534,0 18.404,0 22.62,0 h 39.84534 c 4.216,0 7.664,-3.45067 7.664,-7.66533 v -20.44267 c 0,-4.216 -0.90134,-10.99467 -2.00267,-15.06533 l -2.56267,-9.47333"
         style="fill:#5887db;fill-opacity:1;fill-rule:nonzero;stroke:none;stroke-width:0.133333" /><path
         id="path105"
         d="m -547.437,275.92167 c 0,0 1.64134,-0.003 3.64534,-0.005 l 40.50533,-0.0667 c 2.00533,-0.003 3.14267,-1.28534 2.528,-2.85067 l -5.06133,-19.13067 c -0.612,-1.56533 -2.75334,-2.844 -4.75867,-2.844 h -33.21333 c -2.004,0 -3.78,0 -3.94534,0 -0.16533,0 -1.94133,0 -3.94533,0 h -33.21333 c -2.004,0 -4.14534,1.27867 -4.75867,2.844 L -594.717,272.999 c -0.612,1.56533 0.52667,2.848 2.532,2.85067 l 40.50267,0.0667 c 2.004,0.003 3.64533,0.005 3.64533,0.005 h 0.15067 0.3 0.14933"
         style="fill:#caebfe;fill-opacity:1;fill-rule:nonzero;stroke:none;stroke-width:0.133333" /><path
         id="path106"
         d="m -545.07033,299.90033 c -1.46667,0 -3.86667,0 -5.33333,0 h -26.16667 c -1.46667,0 -2.164,1.08933 -1.548,2.42 l 4.00933,8.67467 c 0.61467,1.332 2.31734,2.42 3.78534,2.42 h 19.92 c 1.46666,0 3.86666,0 5.33333,0 h 19.92 c 1.468,0 3.17067,-1.088 3.78533,-2.42 l 4.00934,-8.67467 c 0.616,-1.33067 -0.0813,-2.42 -1.548,-2.42 h -26.16667"
         style="fill:#427abc;fill-opacity:1;fill-rule:nonzero;stroke:none;stroke-width:0.133333" /><path
         id="path107"
         d="m -564.19033,310.379 h 32.90667 v -8.26934 h -32.90667 v 8.26934"
         style="fill:#ffffff;fill-opacity:1;fill-rule:nonzero;stroke:none;stroke-width:0.133333" /><path
         id="path108"
         d="m -580.61033,312.80033 -7.12533,-13.152 h -15.41867 v 13.152 h 22.544"
         style="fill:#cc2b11;fill-opacity:1;fill-rule:nonzero;stroke:none;stroke-width:0.133333" /><path
         id="path109"
         d="m -514.86233,312.80033 7.12533,-13.152 h 15.41867 v 13.152 h -22.544"
         style="fill:#cc2b11;fill-opacity:1;fill-rule:nonzero;stroke:none;stroke-width:0.133333" /><path
         id="path110"
         d="m -482.07033,337.219 h -131.33333 v -14.11067 h 131.33333 V 337.219"
         style="fill:#a1a9b7;fill-opacity:1;fill-rule:nonzero;stroke:none;stroke-width:0.133333" /><path
         id="path111"
         d="m -767.49859,343.19233 c 0,3.676 -2.54573,6.68667 -5.6536,6.68667 h -5.45307 c -3.1084,0 -5.65266,-3.01067 -5.65266,-6.68667 v -27.392 c 0,-3.67733 2.54426,-6.68667 5.65266,-6.68667 h 5.45307 c 3.10787,0 5.6536,3.00934 5.6536,6.68667 v 27.392"
         style="fill:#42454c;fill-opacity:1;fill-rule:nonzero;stroke:none;stroke-width:0.133333" /><path
         id="path112"
         d="m -658.55033,343.19233 c 0,3.676 -2.54533,6.68667 -5.65333,6.68667 h -5.45333 c -3.108,0 -5.652,-3.01067 -5.652,-6.68667 v -27.392 c 0,-3.67733 2.544,-6.68667 5.652,-6.68667 h 5.45333 c 3.108,0 5.65333,3.00934 5.65333,6.68667 v 27.392"
         style="fill:#42454c;fill-opacity:1;fill-rule:nonzero;stroke:none;stroke-width:0.133333" /><path
         id="path113"
         d="m -661.72899,283.80567 c -1.10134,-4.06934 -2.79334,-10.756 -3.76,-14.86134 l -3.70934,-15.73733 c -0.968,-4.104 -5.20666,-7.46133 -9.424,-7.46133 h -26.0496 c -4.21626,0 -20.9948,0 -22.62093,0 -1.62493,0 -6.4036,0 -10.62026,0 h -26.04894 c -4.21666,0 -8.45733,3.35733 -9.424,7.46133 l -3.7088,15.73733 c -0.96666,4.10534 -2.66,10.792 -3.76093,14.86134 l -2.56253,9.47333 c -1.10214,4.07066 -2.0032,10.84933 -2.0032,15.06533 V 328.787 c 0,4.21466 3.4496,7.66533 7.66573,7.66533 h 39.84267 c 4.21666,0 8.99533,0 10.62026,0 1.62613,0 18.40467,0 22.62093,0 h 39.84294 c 4.216,0 7.66533,-3.45067 7.66533,-7.66533 v -20.44267 c 0,-4.216 -0.90133,-10.99467 -2.00267,-15.06533 l -2.56266,-9.47333"
         style="fill:#5887db;fill-opacity:1;fill-rule:nonzero;stroke:none;stroke-width:0.133333" /><path
         id="path114"
         d="m -720.96259,277.13367 c 0,0 1.8,-0.003 4,-0.007 l 44.4456,-0.0733 c 2.2,-0.003 3.44933,-1.41067 2.776,-3.12667 l -5.55467,-20.99333 c -0.672,-1.716 -3.02133,-3.12134 -5.22133,-3.12134 h -36.4456 c -2.2,0 -4.1484,0 -4.32974,0 -0.18066,0 -2.1296,0 -4.3296,0 h -36.44386 c -2.2,0 -4.55,1.40534 -5.2228,3.12134 l -5.5548,20.99333 c -0.6724,1.716 0.5776,3.124 2.7776,3.12667 l 44.44386,0.0733 c 2.2,0.004 4,0.007 4,0.007 h 0.16507 0.3292 0.16507"
         style="fill:#caebfe;fill-opacity:1;fill-rule:nonzero;stroke:none;stroke-width:0.133333" /><path
         id="path115"
         d="m -701.59539,319.33366 h -39.3932 V 309.435 h 39.3932 v 9.89866"
         style="fill:#ffffff;fill-opacity:1;fill-rule:nonzero;stroke:none;stroke-width:0.133333" /><path
         id="path116"
         d="m -762.83912,318.163 c 0,1.1 -1.2,2 -2.66667,2 h -6.2048 c -1.46667,0 -2.66667,-0.9 -2.66667,-2 0,-1.1 1.2,-2 2.66667,-2 h 6.2048 c 1.46667,0 2.66667,0.9 2.66667,2"
         style="fill:#ffffff;fill-opacity:1;fill-rule:nonzero;stroke:none;stroke-width:0.133333" /><path
         id="path117"
         d="m -668.20766,318.163 c 0,1.1 -1.2,2 -2.66667,2 h -6.20266 c -1.46667,0 -2.66667,-0.9 -2.66667,-2 0,-1.1 1.2,-2 2.66667,-2 h 6.20266 c 1.46667,0 2.66667,0.9 2.66667,2"
         style="fill:#ffffff;fill-opacity:1;fill-rule:nonzero;stroke:none;stroke-width:0.133333" /><path
         id="path118"
         d="m -677.76499,300.911 h -85.07413 v -2.70667 h 85.07413 v 2.70667"
         style="fill:#427abc;fill-opacity:1;fill-rule:nonzero;stroke:none;stroke-width:0.133333" /><path
         id="path119"
         d="m -716.38139,299.55766 c 0,2.712 -2.19947,4.91067 -4.91094,4.91067 -2.71253,0 -4.91146,-2.19867 -4.91146,-4.91067 0,-2.71199 2.19893,-4.91199 4.91146,-4.91199 2.71147,0 4.91094,2.2 4.91094,4.91199"
         style="fill:#73a6ef;fill-opacity:1;fill-rule:nonzero;stroke:none;stroke-width:0.133333" /><path
         id="path120"
         d="m -774.37726,302.81633 v -7.776 h 13.1948 c 0,0 6.36147,2.828 6.36147,7.776 h -19.55627"
         style="fill:#f9e873;fill-opacity:1;fill-rule:nonzero;stroke:none;stroke-width:0.133333" /><path
         id="path121"
         d="m -668.20766,302.81633 v -7.776 h -13.19467 c 0,0 -6.36133,2.828 -6.36133,7.776 h 19.556"
         style="fill:#f9e873;fill-opacity:1;fill-rule:nonzero;stroke:none;stroke-width:0.133333" /><path
         id="path122"
         d="m -670.11299,277.14833 c 0,-0.72533 0.65733,-1.976 1.45866,-2.77733 l 7.22667,-7.22533 c 0.80133,-0.80134 1.45867,-0.52934 1.45867,0.604 v 8.656 c 0,1.13333 -0.932,2.06266 -2.06267,2.06266 h -6.01867 c -1.13066,0 -2.06266,-0.59466 -2.06266,-1.32"
         style="fill:#42454c;fill-opacity:1;fill-rule:nonzero;stroke:none;stroke-width:0.133333" /><path
         id="path123"
         d="m -772.47099,277.14833 c 0,-0.72533 -0.6572,-1.976 -1.45773,-2.77733 l -7.22654,-7.22533 c -0.80106,-0.80134 -1.45893,-0.52934 -1.45893,0.604 v 8.656 c 0,1.13333 0.9312,2.06266 2.06307,2.06266 h 6.01813 c 1.13133,0 2.062,-0.59466 2.062,-1.32"
         style="fill:#42454c;fill-opacity:1;fill-rule:nonzero;stroke:none;stroke-width:0.133333" /><path
         id="path124"
         d="m -655.62499,337.219 h -131.33347 v -14.11067 h 131.33347 V 337.219"
         style="fill:#a1a9b7;fill-opacity:1;fill-rule:nonzero;stroke:none;stroke-width:0.133333" /><path
         id="path125"
         d="m -216.98234,537.29379 h -223.01599 v -34.24146 h 223.01599 v 34.24146"
         style="fill:#efa726;fill-opacity:1;fill-rule:nonzero;stroke:none;stroke-width:0.133333" /><path
         id="path126"
         d="m -219.521,441.10566 h -110.20134 c -8.92933,0 -22.13199,4.31867 -29.33866,9.596 l -30.07733,22.032 c -7.20667,5.27733 -20.16134,11.47467 -28.79467,13.772 l -20.24667,5.38667 c -8.63066,2.29866 -17.17466,11.33333 -18.98533,20.08 l -1.95067,9.41733 c -1.80933,8.74667 4.016,15.90413 12.948,15.90413 h 12.57334 c 0,-14.1908 11.5,-25.6908 25.69066,-25.6908 14.18667,0 25.68667,11.5 25.68934,25.6908 h 102.26799 c 0,-14.1908 11.5,-25.6908 25.69067,-25.6908 14.18667,0 25.68933,11.5 25.68933,25.6908 h 9.04534 c 8.932,0 16.23866,-7.30813 16.23866,-16.24013 v -63.708 c 0,-8.932 -7.30666,-16.24 -16.23866,-16.24"
         style="fill:#fcbe43;fill-opacity:1;fill-rule:nonzero;stroke:none;stroke-width:0.133333" /><path
         id="path127"
         d="m -388.121,484.00299 43.30533,-31.23066 h 33.72933 v 31.23066 H -388.121"
         style="fill:#caebfe;fill-opacity:1;fill-rule:nonzero;stroke:none;stroke-width:0.133333" /><path
         id="path128"
         d="m -270.28234,484.00299 h -37.05733 v -31.23066 h 37.05733 v 31.23066"
         style="fill:#caebfe;fill-opacity:1;fill-rule:nonzero;stroke:none;stroke-width:0.133333" /><path
         id="path129"
         d="m -216.98234,484.00299 h -49.008 v -31.23066 h 49.008 v 31.23066"
         style="fill:#caebfe;fill-opacity:1;fill-rule:nonzero;stroke:none;stroke-width:0.133333" /><path
         id="path130"
         d="m -388.121,486.91766 v 25.81733 c 0,0 9.16267,7.91067 9.57867,20.40147 h 67.45599 v -46.2188 H -388.121"
         style="fill:#efa726;fill-opacity:1;fill-rule:nonzero;stroke:none;stroke-width:0.133333" /><path
         id="path131"
         d="m -324.21167,490.76433 c 0,0.688 0.56,1.244 1.248,1.244 h 7.924 c 0.688,0 1.24533,-0.556 1.24533,-1.244 0,-0.688 -0.55733,-1.24534 -1.24533,-1.24534 h -7.924 c -0.688,0 -1.248,0.55734 -1.248,1.24534"
         style="fill:#f2e7e8;fill-opacity:1;fill-rule:nonzero;stroke:none;stroke-width:0.133333" /><path
         id="path132"
         d="m -307.33967,486.91766 h 37.05733 v 26.536 c 0,0 -10.72133,3.652 -12.48933,19.6828 h -24.568 v -46.2188"
         style="fill:#efa726;fill-opacity:1;fill-rule:nonzero;stroke:none;stroke-width:0.133333" /><path
         id="path133"
         d="m -282.665,490.76433 c 0,0.688 0.55733,1.244 1.24533,1.244 h 7.924 c 0.69067,0 1.24533,-0.556 1.24533,-1.244 0,-0.688 -0.55466,-1.24534 -1.24533,-1.24534 h -7.924 c -0.688,0 -1.24533,0.55734 -1.24533,1.24534"
         style="fill:#f2e7e8;fill-opacity:1;fill-rule:nonzero;stroke:none;stroke-width:0.133333" /><path
         id="path134"
         d="m -451.805,510.02699 c 0,0 0,-7.07866 4.372,-10.408 4.372,-3.33333 11.45333,-2.70666 11.45333,-2.70666 0,0 -2.292,12.07466 -15.82533,13.11466"
         style="fill:#f9e873;fill-opacity:1;fill-rule:nonzero;stroke:none;stroke-width:0.133333" /><path
         id="path135"
         d="m -203.28234,467.13766 -5.58,4.37333 v 9.68134 h 5.58 v -14.05467"
         style="fill:#e24627;fill-opacity:1;fill-rule:nonzero;stroke:none;stroke-width:0.133333" /><path
         id="path136"
         d="m -203.28234,495.55766 h -5.58 v -14.36533 h 5.58 v 14.36533"
         style="fill:#ef583f;fill-opacity:1;fill-rule:nonzero;stroke:none;stroke-width:0.133333" /><path
         id="path137"
         d="m -203.28234,495.55766 h -5.58 v 7.49467 h 5.58 v -7.49467"
         style="fill:#e24627;fill-opacity:1;fill-rule:nonzero;stroke:none;stroke-width:0.133333" /><path
         id="path138"
         d="m -430.47167,537.29379 c 0,12.464 10.10134,22.56507 22.568,22.56507 12.46267,0 22.56667,-10.10107 22.56667,-22.56507 0,-12.46546 -10.104,-22.56813 -22.56667,-22.56813 -12.46666,0 -22.568,10.10267 -22.568,22.56813"
         style="fill:#42454c;fill-opacity:1;fill-rule:nonzero;stroke:none;stroke-width:0.133333" /><path
         id="path139"
         d="m -421.55033,536.69379 c 0,7.53427 6.10666,13.64374 13.644,13.64374 7.53333,0 13.64266,-6.10947 13.64266,-13.64374 0,-7.53613 -6.10933,-13.64546 -13.64266,-13.64546 -7.53734,0 -13.644,6.10933 -13.644,13.64546"
         style="fill:#818691;fill-opacity:1;fill-rule:nonzero;stroke:none;stroke-width:0.133333" /><path
         id="path140"
         d="m -276.82367,537.29379 c 0,12.464 10.104,22.56507 22.568,22.56507 12.464,0 22.568,-10.10107 22.568,-22.56507 0,-12.46546 -10.104,-22.56813 -22.568,-22.56813 -12.464,0 -22.568,10.10267 -22.568,22.56813"
         style="fill:#42454c;fill-opacity:1;fill-rule:nonzero;stroke:none;stroke-width:0.133333" /><path
         id="path141"
         d="m -267.90234,536.69379 c 0,7.53427 6.11067,13.64374 13.644,13.64374 7.53334,0 13.64267,-6.10947 13.64267,-13.64374 0,-7.53613 -6.10933,-13.64546 -13.64267,-13.64546 -7.53333,0 -13.644,6.10933 -13.644,13.64546"
         style="fill:#818691;fill-opacity:1;fill-rule:nonzero;stroke:none;stroke-width:0.133333" /><path
         id="path142"
         d="m -207.40367,515.00166 h -25.33867 c -2.64666,0 -4.90933,1.676 -5.81333,4.01467 5.66667,4.1 9.36533,10.748 9.36533,18.27746 0,1.57187 -0.16133,3.10667 -0.46666,4.5864 h 22.25333 c 3.43466,0 6.244,-2.80933 6.244,-6.24533 v -14.38787 c 0,-3.436 -2.80934,-6.24533 -6.244,-6.24533"
         style="fill:#a1a9b7;fill-opacity:1;fill-rule:nonzero;stroke:none;stroke-width:0.133333" /><path
         id="path143"
         d="m -455.32633,515.00166 h 25.33866 c 2.64534,0 4.90934,1.676 5.812,4.01467 -5.66666,4.1 -9.364,10.748 -9.364,18.27746 0,1.57187 0.16134,3.10667 0.46934,4.5864 h -22.256 c -3.43467,0 -6.244,-2.80933 -6.244,-6.24533 v -14.38787 c 0,-3.436 2.80933,-6.24533 6.244,-6.24533"
         style="fill:#a1a9b7;fill-opacity:1;fill-rule:nonzero;stroke:none;stroke-width:0.133333" /><path
         id="path144"
         d="m -767.38659,553.17233 c 0,3.6772 -2.54587,6.68653 -5.6536,6.68653 h -5.4532 c -3.10827,0 -5.65253,-3.00933 -5.65253,-6.68653 v -27.392 c 0,-3.67734 2.54426,-6.68667 5.65253,-6.68667 h 5.4532 c 3.10773,0 5.6536,3.00933 5.6536,6.68667 v 27.392"
         style="fill:#42454c;fill-opacity:1;fill-rule:nonzero;stroke:none;stroke-width:0.133333" /><path
         id="path145"
         d="m -658.43833,553.17233 c 0,3.6772 -2.54533,6.68653 -5.65333,6.68653 h -5.45333 c -3.108,0 -5.652,-3.00933 -5.652,-6.68653 v -27.392 c 0,-3.67734 2.544,-6.68667 5.652,-6.68667 h 5.45333 c 3.108,0 5.65333,3.00933 5.65333,6.68667 v 27.392"
         style="fill:#42454c;fill-opacity:1;fill-rule:nonzero;stroke:none;stroke-width:0.133333" /><path
         id="path146"
         d="m -672.56766,434.23899 c -1.52133,-4.90266 -6.96533,-8.91466 -12.09867,-8.91466 h -26.0192 c -5.13333,0 -9.8688,0 -10.52346,0 -0.65414,0 -5.3896,0 -10.52294,0 h -26.01866 c -5.13333,0 -10.57813,4.012 -12.09907,8.91466 l -16.85666,54.324 c -1.52094,4.90267 -2.7656,13.11467 -2.7656,18.24667 v 27.3336 c 0,5.13333 4.2,9.33333 9.33333,9.33333 h 48.40666 c 5.13334,0 9.8688,0 10.52294,0 0.65466,0 5.39013,0 10.52346,0 h 48.4072 c 5.13334,0 9.33334,-4.2 9.33334,-9.33333 v -27.3336 c 0,-5.132 -1.24534,-13.344 -2.76534,-18.24667 l -16.85733,-54.324"
         style="fill:#fcbe43;fill-opacity:1;fill-rule:nonzero;stroke:none;stroke-width:0.133333" /><path
         id="path147"
         d="m -720.90793,477.93499 c 0,0 1.64067,-0.003 3.64587,-0.007 l 43.1704,-0.0653 c 2.00533,-0.004 3.14267,-1.28533 2.528,-2.85066 l -7.728,-29.79734 c -0.612,-1.56533 -2.75333,-2.844 -4.75733,-2.844 h -33.21307 c -2.0052,0 -3.78187,0 -3.9464,0 -0.16453,0 -1.94067,0 -3.94533,0 h -33.21253 c -2.00414,0 -4.1468,1.27867 -4.75934,2.844 l -7.7292,29.79734 c -0.6124,1.56533 0.52667,2.84666 2.53187,2.85066 l 43.1692,0.0653 c 2.00466,0.004 3.64533,0.007 3.64533,0.007 h 0.15053 0.3 0.15"
         style="fill:#caebfe;fill-opacity:1;fill-rule:nonzero;stroke:none;stroke-width:0.133333" /><path
         id="path148"
         d="m -760.97099,507.56833 c 5.5204,0 10.03907,-2.17334 10.03907,-4.828 0,-2.65867 -4.2776,-6.276 -9.5124,-8.04534 l -4.43134,-1.49866 c -5.23226,-1.768 -9.51293,0.74266 -9.51293,5.57866 0,4.836 4.51867,8.79334 10.0416,8.79334 h 3.376"
         style="fill:#f9e873;fill-opacity:1;fill-rule:nonzero;stroke:none;stroke-width:0.133333" /><path
         id="path149"
         d="m -681.44633,507.56833 c -5.52,0 -10.03866,-2.17334 -10.03866,-4.828 0,-2.65867 4.27733,-6.276 9.51333,-8.04534 l 4.43067,-1.49866 c 5.232,-1.768 9.51333,0.74266 9.51333,5.57866 0,4.836 -4.51867,8.79334 -10.04133,8.79334 h -3.37734"
         style="fill:#f9e873;fill-opacity:1;fill-rule:nonzero;stroke:none;stroke-width:0.133333" /><path
         id="path150"
         d="m -650.54899,538.30313 c 0,3.66666 -3,6.66666 -6.66667,6.66666 h -128.15266 c -3.66667,0 -6.66667,-3 -6.66667,-6.66666 v -16.3868 c 0,-3.66667 3,-6.66667 6.66667,-6.66667 h 128.15266 c 3.66667,0 6.66667,3 6.66667,6.66667 v 16.3868"
         style="fill:#a1a9b7;fill-opacity:1;fill-rule:nonzero;stroke:none;stroke-width:0.133333" /><path
         id="path151"
         d="m -702.17246,528.44566 h -38.07186 v -9.56667 h 38.07186 v 9.56667"
         style="fill:#ffffff;fill-opacity:1;fill-rule:nonzero;stroke:none;stroke-width:0.133333" /><path
         id="path152"
         d="m -679.00633,532.68179 c 0,1.06507 -0.86533,1.93174 -1.932,1.93174 h -80.53933 c -1.06773,0 -1.93333,-0.86667 -1.93333,-1.93174 0,-1.06826 0.8656,-1.9348 1.93333,-1.9348 h 80.53933 c 1.06667,0 1.932,0.86654 1.932,1.9348"
         style="fill:#8f9aaa;fill-opacity:1;fill-rule:nonzero;stroke:none;stroke-width:0.133333" /><path
         id="path153"
         d="m -679.00633,539.12446 c 0,1.06773 -0.86533,1.93173 -1.932,1.93173 h -80.53933 c -1.06773,0 -1.93333,-0.864 -1.93333,-1.93173 0,-1.06827 0.8656,-1.93227 1.93333,-1.93227 h 80.53933 c 1.06667,0 1.932,0.864 1.932,1.93227"
         style="fill:#8f9aaa;fill-opacity:1;fill-rule:nonzero;stroke:none;stroke-width:0.133333" /><path
         id="path154"
         d="m -775.63339,478.23633 c 0,-0.72534 -0.65733,-1.976 -1.4584,-2.77734 l -7.22653,-7.22533 c -0.80054,-0.80133 -1.4584,-0.53067 -1.4584,0.604 v 8.65467 c 0,1.13466 0.93133,2.06266 2.06253,2.06266 h 6.01827 c 1.1312,0 2.06253,-0.59333 2.06253,-1.31866"
         style="fill:#42454c;fill-opacity:1;fill-rule:nonzero;stroke:none;stroke-width:0.133333" /><path
         id="path155"
         d="m -667.06233,478.23633 c 0,-0.72534 0.65867,-1.976 1.45867,-2.77734 l 7.22667,-7.22533 c 0.80133,-0.80133 1.45866,-0.53067 1.45866,0.604 v 8.65467 c 0,1.13466 -0.93066,2.06266 -2.06266,2.06266 h -6.01867 c -1.13067,0 -2.06267,-0.59333 -2.06267,-1.31866"
         style="fill:#42454c;fill-opacity:1;fill-rule:nonzero;stroke:none;stroke-width:0.133333" /><path
         id="path156"
         d="m -602.07833,478.23633 c 0,-0.72534 -0.65733,-1.976 -1.45867,-2.77734 l -7.22666,-7.22533 c -0.80133,-0.80133 -1.45867,-0.53067 -1.45867,0.604 v 8.65467 c 0,1.13466 0.93067,2.06266 2.06267,2.06266 h 6.01867 c 1.13066,0 2.06266,-0.59333 2.06266,-1.31866"
         style="fill:#42454c;fill-opacity:1;fill-rule:nonzero;stroke:none;stroke-width:0.133333" /><path
         id="path157"
         d="m -493.50633,478.23633 c 0,-0.72534 0.65733,-1.976 1.45867,-2.77734 l 7.22666,-7.22533 c 0.8,-0.80133 1.45867,-0.53067 1.45867,0.604 v 8.65467 c 0,1.13466 -0.932,2.06266 -2.06267,2.06266 h -6.01866 c -1.132,0 -2.06267,-0.59333 -2.06267,-1.31866"
         style="fill:#42454c;fill-opacity:1;fill-rule:nonzero;stroke:none;stroke-width:0.133333" /><path
         id="path158"
         d="m -593.83166,553.17233 c 0,3.6772 -2.54534,6.68653 -5.65467,6.68653 h -5.452 c -3.108,0 -5.65333,-3.00933 -5.65333,-6.68653 v -27.392 c 0,-3.67734 2.54533,-6.68667 5.65333,-6.68667 h 5.452 c 3.10933,0 5.65467,3.00933 5.65467,6.68667 v 27.392"
         style="fill:#42454c;fill-opacity:1;fill-rule:nonzero;stroke:none;stroke-width:0.133333" /><path
         id="path159"
         d="m -484.88366,553.17233 c 0,3.6772 -2.544,6.68653 -5.65334,6.68653 h -5.45333 c -3.10667,0 -5.652,-3.00933 -5.652,-6.68653 v -27.392 c 0,-3.67734 2.54533,-6.68667 5.652,-6.68667 h 5.45333 c 3.10934,0 5.65334,3.00933 5.65334,6.68667 v 27.392"
         style="fill:#42454c;fill-opacity:1;fill-rule:nonzero;stroke:none;stroke-width:0.133333" /><path
         id="path160"
         d="m -499.013,434.23899 c -1.52133,-4.90266 -6.96533,-8.91466 -12.09866,-8.91466 h -26.01867 c -5.13333,0 -9.86933,0 -10.524,0 -0.65467,0 -5.38933,0 -10.52267,0 h -26.01866 c -5.13334,0 -10.57867,4.012 -12.09867,8.91466 l -16.85733,54.324 c -1.52133,4.90267 -2.76533,13.11467 -2.76533,18.24667 v 27.3336 c 0,5.13333 4.2,9.33333 9.33333,9.33333 h 48.40666 c 5.13334,0 9.868,0 10.52267,0 0.65467,0 5.39067,0 10.524,0 h 48.40533 c 5.136,0 9.33334,-4.2 9.33334,-9.33333 v -27.3336 c 0,-5.132 -1.244,-13.344 -2.76534,-18.24667 l -16.856,-54.324"
         style="fill:#fcbe43;fill-opacity:1;fill-rule:nonzero;stroke:none;stroke-width:0.133333" /><path
         id="path161"
         d="m -476.993,538.30313 c 0,3.66666 -3,6.66666 -6.66666,6.66666 h -128.15467 c -3.66666,0 -6.66666,-3 -6.66666,-6.66666 v -16.3868 c 0,-3.66667 3,-6.66667 6.66666,-6.66667 h 128.15467 c 3.66666,0 6.66666,3 6.66666,6.66667 v 16.3868"
         style="fill:#a1a9b7;fill-opacity:1;fill-rule:nonzero;stroke:none;stroke-width:0.133333" /><path
         id="path162"
         d="m -597.641,473.30033 9.66934,-39.85867 h 40.31866 v 76.16667 h -49.988 v -36.308"
         style="fill:#efa726;fill-opacity:1;fill-rule:nonzero;stroke:none;stroke-width:0.133333" /><path
         id="path163"
         d="m -551.33433,445.40833 c 0,-3.66667 -3,-6.66667 -6.66667,-6.66667 h -21.952 c -3.66666,0 -7.03866,2.976 -7.49333,6.61467 l -2.984,23.892 c -0.45467,3.63866 2.17333,6.61466 5.84,6.61466 h 26.58933 c 3.66667,0 6.66667,-3 6.66667,-6.66666 v -23.788"
         style="fill:#caebfe;fill-opacity:1;fill-rule:nonzero;stroke:none;stroke-width:0.133333" /><path
         id="path164"
         d="m -597.641,473.30033 -5.58,4.372 v 9.68133 h 5.58 v -14.05333"
         style="fill:#e24627;fill-opacity:1;fill-rule:nonzero;stroke:none;stroke-width:0.133333" /><path
         id="path165"
         d="m -597.641,501.71899 h -5.58 v -14.36533 h 5.58 v 14.36533"
         style="fill:#ef583f;fill-opacity:1;fill-rule:nonzero;stroke:none;stroke-width:0.133333" /><path
         id="path166"
         d="m -597.641,501.71899 h -5.58 v 7.49467 h 5.58 v -7.49467"
         style="fill:#e24627;fill-opacity:1;fill-rule:nonzero;stroke:none;stroke-width:0.133333" /><path
         id="path167"
         d="m -497.83166,473.30033 5.57866,4.372 v 9.68133 h -5.57866 v -14.05333"
         style="fill:#e24627;fill-opacity:1;fill-rule:nonzero;stroke:none;stroke-width:0.133333" /><path
         id="path168"
         d="m -497.83166,501.71899 h 5.57866 v -14.36533 h -5.57866 v 14.36533"
         style="fill:#ef583f;fill-opacity:1;fill-rule:nonzero;stroke:none;stroke-width:0.133333" /><path
         id="path169"
         d="m -497.83166,501.71899 h 5.57866 v 7.49467 h -5.57866 v -7.49467"
         style="fill:#e24627;fill-opacity:1;fill-rule:nonzero;stroke:none;stroke-width:0.133333" /><path
         id="path170"
         d="m -497.441,473.30033 -9.072,-39.85867 h -37.82533 v 76.16667 h 46.89733 v -36.308"
         style="fill:#efa726;fill-opacity:1;fill-rule:nonzero;stroke:none;stroke-width:0.133333" /><path
         id="path171"
         d="m -540.641,445.40833 c 0,-3.66667 3,-6.66667 6.66667,-6.66667 h 17.40533 c 3.66667,0 7.12134,2.964 7.67734,6.58933 l 3.672,23.94267 c 0.556,3.62533 -1.98934,6.58933 -5.656,6.58933 h -23.09867 c -3.66667,0 -6.66667,-3 -6.66667,-6.66666 v -23.788"
         style="fill:#caebfe;fill-opacity:1;fill-rule:nonzero;stroke:none;stroke-width:0.133333" /><path
         id="path172"
         d="m -550.15166,501.60299 c 0,1.49067 -1.21867,2.708 -2.708,2.708 h -38.596 c -1.49067,0 -2.70934,-1.21733 -2.70934,-2.708 v -10.23466 c 0,-1.49067 1.21867,-2.708 2.70934,-2.708 h 38.596 c 1.48933,0 2.708,1.21733 2.708,2.708 v 10.23466"
         style="fill:#fcbe43;fill-opacity:1;fill-rule:nonzero;stroke:none;stroke-width:0.133333" /><path
         id="path173"
         d="m -586.95433,500.20299 h 29.592 v -7.436 h -29.592 v 7.436"
         style="fill:#ffffff;fill-opacity:1;fill-rule:nonzero;stroke:none;stroke-width:0.133333" /></g></g></svg>
